<?xml version="1.0" encoding="utf-8"?><svg xmlns="http://www.w3.org/2000/svg" xmlns:xlink="http://www.w3.org/1999/xlink"><symbol viewBox="0 0 64 64" id="alarm" xmlns="http://www.w3.org/2000/svg"><path class="aast0" d="M32 64C16.2 64 3.4 51.2 3.4 35.4S16.2 6.7 32 6.7s28.6 12.8 28.6 28.6C60.6 51.2 47.8 64 32 64zm0-54.5C17.8 9.5 6.2 21.1 6.2 35.4c0 14.2 11.6 25.8 25.8 25.8 14.2 0 25.8-11.6 25.8-25.8C57.8 21.1 46.2 9.5 32 9.5z"/><path class="aast0" d="M32 40.6c-1.4 0-2.6-.7-3.4-1.8-1.4-1.9-.9-4.5.9-5.9.7-.5 1.6-.8 2.5-.8 1.4 0 2.6.7 3.4 1.8.7.9.9 2 .8 3.2-.2 1.1-.8 2.1-1.7 2.8-.7.4-1.6.7-2.5.7zm0-5.7c-.3 0-.6.1-.8.3-.6.5-.8 1.4-.3 2 .3.4.7.6 1.2.6.3 0 .6-.1.8-.3.3-.2.5-.6.6-.9.1-.4 0-.8-.3-1.1-.3-.4-.7-.6-1.2-.6z"/><path class="aast0" d="M30.3 35.5c-.4 0-.9-.2-1.1-.6l-9.9-13.7c-.5-.6-.3-1.5.3-2s1.5-.3 2 .3l9.9 13.7c.5.6.3 1.5-.3 2-.3.2-.6.3-.9.3zm4 .6c-.4 0-.9-.2-1.1-.6-.5-.6-.3-1.5.3-2l7.2-5.2c.6-.5 1.5-.3 2 .3s.3 1.5-.3 2l-7.2 5.2c-.3.2-.6.3-.9.3zm5.2-30.9c0 1.5-.9 2.9-2.5 3.9-.7.4-1.5.2-1.9-.5-.4-.7-.2-1.5.5-1.9.7-.4 1.1-1 1.1-1.5 0-1.1-2-2.4-4.7-2.4s-4.7 1.3-4.7 2.4c0 .5.4 1 1.1 1.5.7.4.9 1.3.5 1.9-.4.7-1.3.9-1.9.5-1.6-1-2.5-2.4-2.5-3.9C24.5 2.3 27.8 0 32 0s7.5 2.3 7.5 5.2z"/></symbol><symbol viewBox="0 0 64 64" id="ar" xmlns="http://www.w3.org/2000/svg"><path class="abst0" d="M45.837 64.07a6.545 6.545 0 0 1-4.659-1.927L12.093 33.057a1.444 1.444 0 0 1 0-2.044L41.178 1.927A6.542 6.542 0 0 1 45.836 0c1.743 0 3.376.673 4.597 1.894a6.447 6.447 0 0 1 1.894 4.627 6.547 6.547 0 0 1-1.927 4.628L32.115 29.435a3.652 3.652 0 0 0-1.071 2.601c0 .987.38 1.91 1.071 2.601L50.4 52.92c2.561 2.562 2.576 6.715.033 9.257a6.456 6.456 0 0 1-4.596 1.893zM15.159 32.035l28.063 28.063a3.673 3.673 0 0 0 2.615 1.081 3.58 3.58 0 0 0 2.552-1.047c1.415-1.415 1.4-3.734-.034-5.169L30.071 36.68a6.519 6.519 0 0 1-1.917-4.644c0-1.759.681-3.408 1.917-4.644L48.356 9.105a3.679 3.679 0 0 0 1.081-2.597 3.58 3.58 0 0 0-3.601-3.618c-.989 0-1.917.384-2.614 1.08L15.159 32.035z"/></symbol><symbol viewBox="0 0 64 64" id="balcony" xmlns="http://www.w3.org/2000/svg"><path class="acst0" d="M47.5 7v25h-1.4V8.4H32.7v23.5h-1.4V8.4H17.9v23.5h-1.4V7h31zm0 27.6v.7H32.7V57H16.5V34.6h1.4v21h13.4v-21h16.2z"/><path class="acst0" d="M10.5 31.9h43.6v3.4H9.9v-3.4h.6zm42.4 1.2H11.1v.9h41.8v-.9z"/><path class="acst0" d="M52.5 34.4V57h-41V34.4h41zm-1.5.9H13v20.3h38V35.3z"/><path class="acst0" d="M21.6 34.6h1.1v21.7h-1.1zm4.9 0h1.1v21.7h-1.1zm9.9 0h1.1v21.7h-1.1zm4.9 0h1.1v21.7h-1.1zm5 0h1.1v21.7h-1.1zM31.8 16.4h14.3v1.4H31.8z"/></symbol><symbol viewBox="0 0 64 64" id="calendar" xmlns="http://www.w3.org/2000/svg"><path d="M61.8 64H2.2c-.6 0-1-.5-1-1V22.7c0-.6.5-1 1-1h59.6c.6 0 1 .5 1 1V63c0 .5-.4 1-1 1zM3.2 61.9h57.6V23.7H3.2v38.2z"/><path d="M61.8 23.7H2.2c-.6 0-1-.5-1-1V5.4c0-.6.5-1 1-1h44.1c.6 0 1 .5 1 1 0 .6-.5 1-1 1h-43v15.2h57.6V6.4h-9.7c-.6 0-1-.5-1-1 0-.6.5-1 1-1H62c.6 0 1 .5 1 1v17.3c-.2.5-.6 1-1.2 1z"/><path d="M46.2 19.9c-3 0-5.4-2.4-5.4-5.4 0-3 2.4-5.4 5.4-5.4 3 0 5.4 2.4 5.4 5.4 0 3-2.4 5.4-5.4 5.4zm0-8.6c-1.8 0-3.3 1.5-3.3 3.3 0 1.8 1.5 3.3 3.3 3.3 1.8 0 3.3-1.5 3.3-3.3 0-1.8-1.4-3.3-3.3-3.3zm-28.4 8.6c-3 0-5.4-2.4-5.4-5.4 0-3 2.4-5.4 5.4-5.4 3 0 5.4 2.4 5.4 5.4-.1 3-2.5 5.4-5.4 5.4zm0-8.6c-1.8 0-3.3 1.5-3.3 3.3 0 1.8 1.5 3.3 3.3 3.3 1.8 0 3.3-1.5 3.3-3.3 0-1.8-1.5-3.3-3.3-3.3z"/><path d="M46.2 15.1c-.6 0-1-.5-1-1V1c0-.6.5-1 1-1 .6 0 1 .5 1 1v13c.1.6-.4 1.1-1 1.1zm-28.4 0c-.6 0-1-.5-1-1V1c0-.6.5-1 1-1 .6 0 1 .5 1 1v13c0 .6-.5 1.1-1 1.1zM14 58.7c-.6 0-1-.5-1-1V28c0-.6.5-1 1-1s1 .5 1 1v29.7c.1.6-.4 1-1 1zm12.4 0c-.6 0-1-.5-1-1V28c0-.6.5-1 1-1s1 .5 1 1v29.7c0 .6-.4 1-1 1zM38.7 48c-.6 0-1-.5-1-1V28c0-.6.5-1 1-1 .6 0 1 .5 1 1v19c0 .6-.4 1-1 1zm12.4-9.5c-.6 0-1-.5-1-1V28c0-.6.5-1 1-1 .6 0 1 .5 1 1v9.5c0 .5-.5 1-1 1z"/><path d="M56.6 34.8H7.4c-.6 0-1-.5-1-1 0-.6.5-1 1-1h49.3c.6 0 1 .5 1 1s-.5 1-1.1 1zm-10.4 9.1H7.4c-.6 0-1-.5-1-1s.5-1 1-1h38.9c.6 0 1 .5 1 1s-.5 1-1.1 1zM33.3 53h-26c-.6 0-1-.5-1-1s.5-1 1-1h26c.6 0 1 .5 1 1s-.4 1-1 1z"/></symbol><symbol viewBox="0 0 64 64" id="cleaner" xmlns="http://www.w3.org/2000/svg"><path class="aest0" d="M21.7 43h-.8l-1.3 18.9h30L48 43c-.4 0-1 0-1.3-.2-.6-.2-.8-.8-.6-1.3.8-1.3 1.1-2.9 1.5-4.8.4-2.3.4-4.8.4-7.1V11.1c0-1.3-1-2.3-2.1-2.3-1.3 0-2.3 1-2.3 2.3v14.1c0 .6-2.1.6-2.1 0V6.9c0-1.3-1-2.3-2.3-2.3-.6 0-1.1.2-1.5.6-.4.4-.6 1-.6 1.5v18.5c0 .6-2.1.6-2.1 0V4.4c0-1.3-1-2.3-2.3-2.3-1.1 0-2.3 1-2.3 2.3v20.8c0 .6-1.9.6-1.9 0v-18c0-1.1-1.1-2.1-2.3-2.1-1.3 0-2.3 1-2.3 2.1v16.6c0 3.1-1.9 5.3-5 2.9-1.3-1.3-3.1-2.7-4.8-3.4-1.1-.6-2.3-.8-3.2 0-.8 1-.8 1.7-.4 2.9.8 1.7 2.5 4.4 5.9 8.2l.4.6c2.3 2.7 4 4.6 5.5 6.3.9.5.3 1.7-.6 1.7zm-2.1-1.9c-1.1-1.3-2.7-3.1-4.2-4.8l-.4-.6c-3.4-4-5.3-6.9-6.1-8.8-1-2.3-.6-3.6.6-5 1.9-1.7 3.6-1.5 5.7-.6 1.7 1 3.6 2.5 5.2 3.8 1.5 1.1 1.7 0 1.7-1.3V7.3c0-2.3 1.9-4.2 4.2-4.2.8 0 1.5.2 2.3.6.1-2.2 2.1-3.7 4.2-3.7 1.9 0 3.6 1.3 4.2 3.2.6-.4 1.5-.8 2.3-.8 2.9 0 4.4 2.3 4.4 5 .6-.4 1.3-.6 2.3-.6 2.3 0 4.2 1.9 4.2 4.2v18.5c0 2.9-.2 5.3-.6 7.5-.2 1.3-.4 2.5-1 3.8h.4c.6 0 1.1.6 1.1 1.1l1.5 20.8c0 .6-.4 1.1-1 1.1H18.4c-.6 0-1-.4-1-1l1.6-21c0-.3.2-.5.6-.7z"/></symbol><symbol viewBox="0 0 64 64" id="clock" xmlns="http://www.w3.org/2000/svg"><path d="M30 50.5c-10.2 0-18.5-8.3-18.5-18.5S19.8 13.5 30 13.5 48.5 21.8 48.5 32 40.2 50.5 30 50.5zm0-35.2c-9.2 0-16.7 7.5-16.7 16.7S20.8 48.7 30 48.7 46.7 41.2 46.7 32 39.2 15.3 30 15.3z"/><path d="M37.7 64H22.3c-1.1 0-2.1-1.1-2.1-2.4V47.3c0-.5.4-.9.9-.9s.9.4.9.9v14.4c0 .4.2.6.2.6h15.3c.1 0 .3-.2.3-.6V47.3c0-.5.4-.9.9-.9s.9.4.9.9v14.4c.1 1.2-.8 2.3-1.9 2.3zm1.1-46.3c-.5 0-.9-.4-.9-.9V2.4c0-.4-.2-.6-.3-.6H22.3c-.1 0-.2.2-.2.6V12c0 .5-.4.9-.9.9s-.9-.4-.9-.9V2.4c0-1.3.9-2.4 2.1-2.4h15.3c1.1 0 2.1 1.1 2.1 2.4v14.4c-.1.5-.5.9-1 .9zM30 35.4c-.9 0-1.7-.4-2.2-1.1-.9-1.2-.6-2.9.6-3.8.5-.3 1-.5 1.6-.5.9 0 1.7.4 2.2 1.1.4.6.6 1.3.5 2-.1.7-.5 1.4-1.1 1.8-.4.3-1 .5-1.6.5zm0-3.7c-.2 0-.4.1-.5.2-.4.3-.5.9-.2 1.3.2.2.4.4.7.4.2 0 .4-.1.5-.2.2-.1.3-.4.4-.6 0-.2 0-.5-.2-.7-.1-.2-.4-.4-.7-.4z"/><path d="M28.9 32.1c-.3 0-.6-.1-.7-.4l-6.4-8.8c-.3-.4-.2-1 .2-1.3.4-.3 1-.2 1.3.2l6.4 8.8c.3.4.2 1-.2 1.3-.2.1-.4.2-.6.2zm2.6.4c-.3 0-.6-.1-.7-.4-.3-.4-.2-1 .2-1.3l4.6-3.4c.4-.3 1-.2 1.3.2.3.4.2 1-.2 1.3L32 32.3c-.1.1-.3.2-.5.2zm17.6 4.4c-1 0-1.9-.6-2.5-1.6-.3-.4-.1-1 .3-1.3.4-.3 1-.1 1.3.3.3.5.6.7 1 .7.7 0 1.5-1.3 1.5-3.1s-.8-3.1-1.5-3.1c-.3 0-.7.3-1 .7-.3.4-.8.6-1.3.3-.4-.3-.6-.8-.3-1.3.6-1 1.5-1.6 2.5-1.6 1.9 0 3.4 2.1 3.4 4.9 0 2.9-1.5 5.1-3.4 5.1z"/></symbol><symbol viewBox="0 0 64 64" id="close" xmlns="http://www.w3.org/2000/svg"><path class="agst0" d="M10.4 54.7c-.3 0-.6-.1-.8-.3-.5-.5-.5-1.2 0-1.7L52.7 9.6c.5-.5 1.2-.5 1.7 0s.5 1.2 0 1.7L11.3 54.4c-.3.2-.6.3-.9.3z"/><path class="agst0" d="M32 64c-3.8 0-7.7-.7-11.4-2.1C6.3 56.4-2.2 41.5.5 26.5c.1-.7.7-1.1 1.4-1 .6.1 1.1.7 1 1.4-2.5 14 5.4 27.8 18.6 32.8 7.4 2.8 15.4 2.6 22.6-.7 7.2-3.2 12.8-9.1 15.6-16.5 2.8-7.4 2.6-15.4-.7-22.6-3.2-7.2-9.1-12.7-16.5-15.6C29.7-.5 15.4 3.9 7.6 15.2c-.4.5-1.1.7-1.7.3-.5-.4-.7-1.1-.3-1.7C14 1.7 29.5-3.2 43.4 2.1c8 3 14.3 9 17.8 16.8 3.5 7.8 3.7 16.5.7 24.4-3 8-9 14.3-16.8 17.8-4.2 2-8.6 2.9-13.1 2.9z"/></symbol><symbol viewBox="0 0 64 64" id="comment" xmlns="http://www.w3.org/2000/svg"><path class="ahst0" d="M56.521 57.93a.738.738 0 0 1-.437-.144l-8.986-6.665H.733A.734.734 0 0 1 0 50.387V12.32a.733.733 0 1 1 1.466 0v37.333H47.34c.157 0 .311.051.437.144l7.856 5.827-.497-5.168a.731.731 0 0 1 .73-.803h6.668V7.537H5.417a.733.733 0 1 1 0-1.466h57.85a.731.731 0 0 1 .733.732v43.583a.733.733 0 0 1-.733.733h-6.594l.578 6.006a.734.734 0 0 1-.73.805z"/></symbol><symbol viewBox="0 0 64 64" id="cup" xmlns="http://www.w3.org/2000/svg"><path class="aist0" d="M32 15.8h18.4v32.3H31.3V15.8h.7zm16.9 1.5H32.7v29.5h16.2V17.3z"/><path class="aist0" d="M14.4 15.8h18.4v32.3h-19V15.8h.6zm16.9 1.5H15.1v29.5h16.2V17.3z"/><path class="aist1" d="M27.3 35.7h1.4v5.5h-1.4z"/><path class="aist0" d="M32 25.9h17.6v1.4H32zm0 10.8h17.6v1.4H32zm3.1 3.1h6.2v8.3h-6.8v-8.3h.6zM40 41h-4.3v5.8H40V41zm2.4 2h4.9v4.6h-5.6V43h.7zm3.7 1.3H43v2.1h3.1v-2.1z"/><path class="aist0" d="M34.5 23.3h12.6v1c0 .8-.3 1.5-.9 2.1-.5.5-1.3.9-2.1.9h-7.4c-.8 0-1.5-.3-2.1-.9-.5-.5-.9-1.3-.9-2.1v-1h.8zm11.3 1.2H35.1c0 .4.2.7.5 1 .3.3.7.5 1.2.5h7.4c.5 0 .9-.2 1.2-.5.2-.3.4-.6.4-1zM35 31.7h6.3L39.7 38h-3.9l-1.6-6.3h.8zm4.7 1.3h-3.9l1 3.8h2l.9-3.8z"/></symbol><symbol viewBox="0 0 64 64" id="del" xmlns="http://www.w3.org/2000/svg"><path class="ajst0" d="M22.697 17.94a5.497 5.497 0 0 1-1.96-.351c-4.354-1.656-5.336-8.562-3.873-12.41A8.076 8.076 0 0 1 24.371 0a8 8 0 0 1 2.852.526 7.976 7.976 0 0 1 4.471 4.215 7.976 7.976 0 0 1 .181 6.143c-1.295 3.407-5.292 7.056-9.178 7.056zm1.674-15.848a5.97 5.97 0 0 0-5.55 3.829c-1.262 3.319-.198 8.624 2.661 9.711.374.142.783.215 1.216.215 2.892 0 6.199-3.013 7.222-5.706a5.894 5.894 0 0 0-.134-4.542 5.903 5.903 0 0 0-3.306-3.117 5.906 5.906 0 0 0-2.109-.39zm2.415 59.709H22.83c-.447 0-.844-.284-.989-.706l-5.97-17.345h-.233l-2.506 17.156a1.046 1.046 0 0 1-1.035.895H8.048a1.046 1.046 0 0 1-1.045-.987c-.076-1.353-1.781-33.232 5.637-41.079 1.19-1.259 2.569-1.897 4.098-1.897 7.567 0 27.591 6.525 28.439 6.803.542.177.842.757.675 1.302l-.77 2.502c-.14.456-.571.766-1.047.737l-16.224-.73c-1.604 1.672-4.095 6.464-3.842 12.125.415 9.281 3.777 19.75 3.811 19.855a1.047 1.047 0 0 1-.994 1.369zm-3.21-2.092h1.796c-.941-3.191-3.149-11.38-3.491-19.038-.291-6.494 2.722-12.237 4.85-14.075.202-.175.463-.271.731-.253l15.86.713.228-.741c-4.167-1.326-20.491-6.385-26.81-6.385-.944 0-1.787.406-2.578 1.242-6.125 6.478-5.346 33.06-5.116 38.537h2.146l2.506-17.156a1.046 1.046 0 0 1 1.035-.895h1.883c.447 0 .844.284.989.706l5.971 17.345z"/><path class="ajst0" d="M52.664 64H40.396c-.527 0-.971-.391-1.038-.914l-2.494-19.615a1.047 1.047 0 0 1 2.076-.264l2.378 18.701H51.72l1.71-16.558c.059-.575.569-1 1.148-.933.575.059.993.573.933 1.148l-1.806 17.497a1.046 1.046 0 0 1-1.041.938z"/><path class="ajst0" d="M56.172 43.869H36.2a1.046 1.046 0 1 1 0-2.092h19.972a1.046 1.046 0 1 1 0 2.092zm-13.02 17.385a1.046 1.046 0 0 1-1.046-1.046V46.451a1.046 1.046 0 1 1 2.092 0v13.756c0 .578-.469 1.047-1.046 1.047zm3.028-3.209a1.046 1.046 0 0 1-1.046-1.046v-10.63a1.046 1.046 0 1 1 2.092 0V57c0 .577-.469 1.045-1.046 1.045zm3.093-1.284a1.046 1.046 0 0 1-1.046-1.046v-9.379a1.046 1.046 0 1 1 2.092 0v9.379c0 .578-.468 1.046-1.046 1.046z"/><path class="ajst0" d="M51.49 48.781H41.033a1.046 1.046 0 1 1 0-2.092H51.49a1.046 1.046 0 1 1 0 2.092zm-.679 3.027h-9.098a1.046 1.046 0 1 1 0-2.092h9.098a1.046 1.046 0 1 1 0 2.092zm-3.355 3.094H41.86a1.046 1.046 0 1 1 0-2.092h5.597a1.046 1.046 0 1 1-.001 2.092zm-1.601-17.648c-.386 0-.748-.214-.93-.567l-2.539-4.929a1.044 1.044 0 0 1 .931-1.525h.011l6.405.065c.496.005.92.357 1.016.844l.779 3.945a1.046 1.046 0 0 1-.824 1.229l-4.645.918c-.069.014-.137.02-.204.02zm-.814-4.911l1.384 2.686 2.847-.562-.412-2.084-3.819-.04z"/></symbol><symbol viewBox="0 0 64 64" id="dishes" xmlns="http://www.w3.org/2000/svg"><path class="akst0" d="M20.6 22.6H52v22.5c0 1.2-.5 2.2-1.2 2.9-.8.8-1.8 1.2-2.9 1.2H29.7l2.3-1.3c2.2-1.3 4-3.1 5.3-5.3 1.1-1.9 1.8-4.1 1.9-6.5H19.9V22.6h.7zm30 1.1H21.3v11.2h19.4v.7c0 2.9-.8 5.6-2.1 7.9-1 1.7-2.3 3.2-3.9 4.5h13.1c.8 0 1.4-.3 1.9-.8s.8-1.2.8-1.9V23.7z"/><path class="akst0" d="M35.9 18.4c3.7 0 7.1.4 9.9 1.2 2.9.8 5.1 2 6.1 3.3.2.3.2.2-.2.5-.1.1-.3.1-.4.1H20.6c-.4 0-.7.2-.7-.2 0-.2.1-.3.2-.5 1-1.4 3.2-2.5 6-3.3 2.7-.7 6.1-1.1 9.8-1.1zm9.5 2.5c-2.6-.7-5.9-1.2-9.5-1.2-3.6 0-6.9.4-9.5 1.2-1.7.5-3 1-4 1.7h27c-.9-.6-2.3-1.2-4-1.7zM25 34.9h15.7v.7c0 2.9-.8 5.6-2.1 7.9-1.4 2.4-3.4 4.4-5.8 5.8l-.2.1H17.4l-.2-.1c-2.4-1.4-4.4-3.4-5.8-5.8-1.4-2.3-2.1-5-2.1-7.9v-.7H25zm14.3 1.4H10.7c.1 2.3.8 4.5 1.9 6.5 1.2 2.1 3 3.9 5.1 5.2h14.5c2.1-1.3 3.9-3 5.1-5.2 1.2-2 1.9-4.2 2-6.5z"/><path class="akst0" d="M17.2 22.5h37.6v1.2H17.2zm16-7.8h5.5c.6 0 1.2.3 1.7.7.4.4.7 1 .7 1.7V20l-.7-.1c-.7-.1-1.4-.2-2.2-.2-.7 0-1.5-.1-2.2-.1-.8 0-1.5 0-2.2.1-.7 0-1.5.1-2.2.2l-.8.1v-3c0-.7.3-1.2.7-1.7.4-.4 1-.6 1.7-.6zm5.5 1.2h-5.5c-.3 0-.6.1-.8.3-.2.2-.3.5-.3.8v1.6c.5 0 1-.1 1.6-.1.8 0 1.5-.1 2.3-.1.8 0 1.5 0 2.3.1.5 0 1 .1 1.6.1V17c0-.3-.1-.6-.3-.8-.3-.2-.6-.3-.9-.3z"/></symbol><symbol viewBox="0 0 64 64" id="done" xmlns="http://www.w3.org/2000/svg"><path class="alst0" d="M32 64c-3.8 0-7.7-.7-11.4-2.1C6.3 56.4-2.2 41.5.5 26.5c.1-.7.7-1.1 1.4-1 .6.1 1.1.7 1 1.4-2.5 14 5.4 27.8 18.6 32.8 7.4 2.8 15.4 2.6 22.6-.7 7.2-3.2 12.8-9.1 15.6-16.5 2.8-7.4 2.6-15.4-.7-22.6-3.2-7.2-9.1-12.7-16.5-15.6C29.7-.5 15.4 3.9 7.6 15.2c-.4.5-1.1.7-1.7.3-.5-.4-.7-1.1-.3-1.7C14 1.7 29.5-3.2 43.4 2.1c8 3 14.3 9 17.8 16.8 3.5 7.8 3.7 16.5.7 24.4-3 8-9 14.3-16.8 17.8-4.2 2-8.6 2.9-13.1 2.9z"/><path class="alst0" d="M48.8 17.9c.5-.6 1.3-.6 1.9-.1.6.5.6 1.3.1 1.9L27.7 46.3c-.5.6-1.3.6-1.9.1-.1 0-.1-.1-.1-.1L12.8 33.2c-.5-.5-.5-1.4 0-1.9s1.4-.5 1.9 0l11.9 12.1 22.2-25.5z"/></symbol><symbol viewBox="0 0 64 64" id="dress" xmlns="http://www.w3.org/2000/svg"><path class="amst0" d="M42.6 31.4l3.1 14.2 5-1-4.6-20.8c-.8-3.7-4.6-4.4-7.9-4.8v.4c0 1.4-.5 2.6-1.4 3.6-.8 1-2 1.7-3.3 2-.5.1-1.1.2-1.7.2s-1.1-.1-1.7-.2c-1.3-.3-2.4-1-3.3-2s-1.4-2.2-1.4-3.6V19c-3.3.4-7.1 1.1-7.9 4.8l-4.6 20.8 4.5 1 3.1-14.2h1.8v17H41v-17h1.6zm2 15.2l-2.2-10.2v13.4H20.9V36.2l-2.4 11.1-7.3-1.6 4.9-22.2c1.1-5 6-5.6 10-6l1.1-.1-.3 1c-.1.3-.1.7-.1 1 0 1 .4 1.9 1 2.7.7.7 1.6 1.3 2.6 1.6.4.1.9.2 1.3.2s.9-.1 1.3-.2c1-.3 1.9-.8 2.6-1.6.6-.7 1-1.7 1-2.7 0-.3 0-.7-.1-1l-.3-1c.3 0 .8.1 1.1.1 4 .4 8.9 1 10 6l4.9 22.2-7.3 1.6-.3-.7z"/><path class="amst0" d="M31.8 16.8h.2c1.2.1 4.4 1.6 5.8 2.1.3.1.5.5.4.8s-.5.5-.8.4L32 18l-5.3 2c-.3.1-.7 0-.8-.4-.1-.3 0-.7.4-.8l5.5-2z"/><path class="amst0" d="M29.3 11.1c1.3-1.4 2.7-1.6 3.8-1.3.7.2 1.3.7 1.7 1.3s.5 1.4.4 2.1c-.2 1-1 2-2.5 2.5v1.6h-1.2v-2.5l.5-.1c1.4-.4 2-1 2.1-1.7.1-.4 0-.9-.2-1.2-.2-.4-.6-.7-1-.8-.7-.2-1.6 0-2.5.9l-1.1-.8z"/></symbol><symbol viewBox="0 0 64 64" id="ex" xmlns="http://www.w3.org/2000/svg"><path class="anst0" d="M32 64c-3.8 0-7.7-.7-11.4-2.1C6.3 56.4-2.2 41.5.5 26.5c.1-.7.7-1.1 1.4-1 .6.1 1.1.7 1 1.4-2.5 14 5.4 27.8 18.6 32.8 7.4 2.8 15.4 2.6 22.6-.7 7.2-3.2 12.8-9.1 15.6-16.5 2.8-7.4 2.6-15.4-.7-22.6-3.2-7.2-9.1-12.7-16.5-15.6C29.7-.5 15.4 3.9 7.6 15.2c-.4.5-1.1.7-1.7.3-.5-.4-.7-1.1-.3-1.7C14 1.7 29.5-3.2 43.4 2.1c8 3 14.3 9 17.8 16.8 3.5 7.8 3.7 16.5.7 24.4-3 8-9 14.3-16.8 17.8-4.2 2-8.6 2.9-13.1 2.9z"/><path class="anst0" d="M32 47.5c-1.5 0-2.8 1.3-2.8 2.8 0 1.5 1.3 2.8 2.8 2.8 1.5 0 2.8-1.2 2.8-2.8 0-1.5-1.3-2.8-2.8-2.8zm0 8c-2.8 0-5.2-2.3-5.2-5.2 0-2.8 2.3-5.2 5.2-5.2 2.8 0 5.2 2.3 5.2 5.2 0 2.9-2.4 5.2-5.2 5.2zm0-44.6c-1.5 0-2.8 1.2-2.8 2.8 0 1.2 1.4 11 2.8 20.1 1.4-9.1 2.8-18.9 2.8-20.1 0-1.6-1.3-2.8-2.8-2.8zm0 31.9c-.6 0-1.1-.4-1.2-1-.4-2.6-4-25.9-4-28.2 0-2.8 2.3-5.1 5.2-5.1 2.8 0 5.2 2.3 5.2 5.1 0 2.2-3.6 25.5-4 28.2-.1.6-.6 1-1.2 1z"/></symbol><symbol viewBox="0 0 64 64" id="fb" xmlns="http://www.w3.org/2000/svg"><path class="aost0" d="M25.3 64c-.2-.3-.2-.5-.2-.8V35.7c0-.8 0-.8-.8-.8H16c-.5 0-.7-.2-.7-.7v-10c0-.5.2-.7.7-.7h8.5c.5 0 .7-.2.7-.8v-8.3c.2-7.3 4-12.8 11.5-14 3-.5 8.8-.3 11.7.2.2 0 .3.2.3.3v9.7c0 .3-.2.3-.5.3-3.2 0-10.8-1.2-11 3.8 0 3-.2 5.8-.2 8.8h10.5c.7 0 .7 0 .7.7-.5 3.3-1 6.7-1.3 10 0 .5-.3.7-.8.7h-9v28.3c0 .3 0 .7-.2.8H25.3z"/></symbol><symbol viewBox="0 0 64 64" id="feedback" xmlns="http://www.w3.org/2000/svg"><path class="apst0" d="M15.6 27.9c-1.5 0-2.8 1.3-2.8 2.8 0 1.5 1.3 2.8 2.8 2.8s2.8-1.2 2.8-2.8c-.1-1.5-1.3-2.8-2.8-2.8zm0 8c-2.8 0-5.2-2.3-5.2-5.2 0-2.9 2.3-5.2 5.2-5.2s5.2 2.3 5.2 5.2c-.1 2.9-2.4 5.2-5.2 5.2zm15.2-8c-1.5 0-2.8 1.3-2.8 2.8 0 1.5 1.3 2.8 2.8 2.8 1.5 0 2.8-1.2 2.8-2.8 0-1.5-1.3-2.8-2.8-2.8zm0 8c-2.8 0-5.2-2.3-5.2-5.2 0-2.9 2.3-5.2 5.2-5.2 2.9 0 5.2 2.3 5.2 5.2 0 2.9-2.3 5.2-5.2 5.2zm15.3-8c-1.5 0-2.8 1.3-2.8 2.8 0 1.5 1.3 2.8 2.8 2.8s2.8-1.2 2.8-2.8c-.1-1.5-1.3-2.8-2.8-2.8zm0 8c-2.9 0-5.2-2.3-5.2-5.2 0-2.9 2.3-5.2 5.2-5.2 2.8 0 5.2 2.3 5.2 5.2-.1 2.9-2.4 5.2-5.2 5.2z"/><path class="apst1" d="M47.2 53.8c.2 0 .4 0 .5.1l12.7 6.4-5.3-14.6c-.1-.3-.1-.7.1-1 2.5-4.3 3.8-9.2 3.8-14.2C59 15 46.4 2.4 30.8 2.4 15.3 2.4 2.6 15 2.6 30.6s12.7 28.2 28.2 28.2c5.6 0 11-1.6 15.7-4.8.2-.1.4-.2.7-.2zM62.6 64c-.2 0-.4-.1-.5-.1l-14.8-7.5c-4.9 3.1-10.6 4.8-16.4 4.8C14 61.2.2 47.5.2 30.6.2 13.7 14 0 30.8 0c16.9 0 30.6 13.7 30.6 30.6 0 5.2-1.3 10.4-3.9 14.9l6.2 16.9c.2.4 0 1-.3 1.3-.2.2-.5.3-.8.3z"/></symbol><symbol viewBox="0 0 64 64" id="house" xmlns="http://www.w3.org/2000/svg"><path class="aqst0" d="M17.143 37.539V17.438c0-.5.267-.961.699-1.211l13.451-7.766c.433-.25.966-.25 1.398 0l13.451 7.766c.433.25.699.711.699 1.211v20.101c0 .5-.389 1.211-1.46 1.211h-27.17c-.887 0-1.068-.711-1.068-1.211zm2.797-19.294v17.837h24.105V18.245l-12.053-6.958-12.052 6.958z"/><path class="aqst0" d="M36.824 31.737h-9.663a2.4 2.4 0 0 1-2.397-2.397v-6.741a2.4 2.4 0 0 1 2.397-2.397h9.663a2.4 2.4 0 0 1 2.397 2.397v6.741a2.4 2.4 0 0 1-2.397 2.397zm-9.663-9.138v6.741h9.664l-.001-6.741h-9.663z"/><path class="aqst0" d="M57.385 20.772C56.03 14.004 52.116 8.167 46.362 4.336A25.78 25.78 0 0 0 32.003.003h-.01a25.78 25.78 0 0 0-14.359 4.333C11.88 8.167 7.965 14.003 6.611 20.772c-1.354 6.768.014 13.658 3.852 19.4l20.407 23.25c.246.368.656.578 1.083.578.015 0 .03-.005.045-.007.015.002.03.007.045.007.427 0 .837-.21 1.083-.578l20.407-23.25c3.839-5.743 5.207-12.632 3.852-19.4zm-6.019 17.957L31.998 60.311 12.63 38.729c-3.453-5.164-4.683-11.361-3.465-17.448 1.218-6.088 4.739-11.337 9.914-14.783a23.163 23.163 0 0 1 12.919-3.914 23.163 23.163 0 0 1 12.919 3.914c5.175 3.445 8.696 8.695 9.914 14.783 1.219 6.087-.012 12.283-3.465 17.448z"/></symbol><symbol viewBox="0 0 64 64" shape-rendering="geometricPrecision" text-rendering="geometricPrecision" image-rendering="optimizeQuality" fill-rule="evenodd" clip-rule="evenodd" id="icon" xmlns="http://www.w3.org/2000/svg"><path class="arfil0" d="M11 21h22c-1 1-2 3-1 5-2 3-2 9 0 12-1 2 0 4 1 5H11V21zm40 7l13 4-13 4v-8zM7 21v22H6c-3 0-6-3-6-7v-8c0-4 3-7 6-7h1z"/></symbol><symbol viewBox="0 0 64 64" id="in" xmlns="http://www.w3.org/2000/svg"><path class="asst0" d="M32 0c-8.7 0-9.8 0-13.2.2-3.4.2-5.7.7-7.8 1.5-2.1.8-3.9 1.9-5.6 3.7C3.6 7.1 2.5 8.9 1.7 11 .9 13 .4 15.4.2 18.8 0 22.2 0 23.3 0 32s0 9.8.2 13.2c.2 3.4.7 5.7 1.5 7.8.8 2.1 1.9 3.9 3.7 5.7 1.8 1.8 3.6 2.9 5.7 3.7 2 .8 4.4 1.3 7.8 1.5 3.3.1 4.4.1 13.1.1s9.8 0 13.2-.2c3.4-.2 5.7-.7 7.8-1.5 2.1-.8 3.9-1.9 5.7-3.7 1.8-1.8 2.9-3.6 3.7-5.7.8-2 1.3-4.4 1.5-7.8.1-3.3.1-4.4.1-13.1s0-9.8-.2-13.2c-.2-3.4-.7-5.7-1.5-7.8-.8-2.1-1.9-3.9-3.7-5.7-1.8-1.8-3.6-2.9-5.7-3.7-2-.8-4.4-1.3-7.8-1.5C41.8 0 40.7 0 32 0zm0 5.8c8.5 0 9.6 0 12.9.2 3.1.1 4.8.7 5.9 1.1 1.5.6 2.6 1.3 3.7 2.4s1.8 2.2 2.4 3.7c.4 1.1 1 2.8 1.1 5.9.2 3.4.2 4.4.2 12.9s0 9.6-.2 12.9c-.2 3.1-.7 4.8-1.1 5.9-.6 1.5-1.3 2.6-2.4 3.7-1.1 1.1-2.2 1.8-3.7 2.4-1.1.4-2.8 1-6 1.1-3.4.2-4.4.2-13 .2s-9.6 0-13-.2c-3.1-.2-4.8-.7-6-1.1-1.5-.6-2.6-1.3-3.7-2.4-1.1-1.1-1.8-2.2-2.4-3.7-.4-1.1-1-2.8-1.1-6 .1-3.3 0-4.3 0-12.8s0-9.6.2-13c.2-3.1.7-4.8 1.1-6 .6-1.5 1.3-2.6 2.4-3.7S11.5 7.5 13 7c1.1-.4 2.8-1 5.9-1.1 3.4-.1 4.4-.2 13-.2l.1.1zm0 9.8c-9.1 0-16.4 7.4-16.4 16.4 0 9.1 7.4 16.4 16.4 16.4 9.1 0 16.4-7.4 16.4-16.4 0-9.1-7.3-16.4-16.4-16.4zm0 27.1c-5.9 0-10.7-4.8-10.7-10.7S26.1 21.3 32 21.3 42.7 26.1 42.7 32 37.9 42.7 32 42.7zm20.9-27.8c0 2.1-1.7 3.8-3.8 3.8s-3.8-1.7-3.8-3.8 1.7-3.8 3.8-3.8 3.8 1.7 3.8 3.8z"/></symbol><symbol viewBox="0 0 64 64" id="info" xmlns="http://www.w3.org/2000/svg"><path class="atst0" d="M32 64c-3.8 0-7.7-.7-11.4-2.1C6.3 56.4-2.2 41.5.5 26.5c.1-.7.7-1.1 1.4-1 .6.1 1.1.7 1 1.4-2.5 14 5.4 27.8 18.6 32.8 7.4 2.8 15.4 2.6 22.6-.7 7.2-3.2 12.8-9.1 15.6-16.5 2.8-7.4 2.6-15.4-.7-22.6-3.2-7.2-9.1-12.7-16.5-15.6C29.7-.5 15.4 3.9 7.6 15.2c-.4.5-1.1.7-1.7.3-.5-.4-.7-1.1-.3-1.7C14 1.7 29.5-3.2 43.4 2.1c8 3 14.3 9 17.8 16.8 3.5 7.8 3.7 16.5.7 24.4-3 8-9 14.3-16.8 17.8-4.2 2-8.6 2.9-13.1 2.9z"/><path class="atst0" d="M34 11.9c-1.5 0-2.8 1.3-2.8 2.8s1.3 2.8 2.8 2.8c1.5 0 2.8-1.2 2.8-2.8s-1.3-2.8-2.8-2.8zm0 7.9c-2.8 0-5.2-2.3-5.2-5.2 0-2.8 2.3-5.2 5.2-5.2 2.8 0 5.2 2.3 5.2 5.2 0 2.9-2.4 5.2-5.2 5.2zm3.4 28.6c.7-.1 1.4.4 1.5 1.1.1.7-.4 1.4-1.1 1.5l-9 1.3c-.7.1-1.4-.4-1.5-1.1v-.5L31.8 27l-5.3 1.5c-.7.2-1.5-.2-1.7-.9-.2-.7.2-1.5.9-1.7l7.4-2.1c.2-.1.4-.1.6 0 .7.1 1.2.8 1.1 1.6l-4.6 24.1 7.2-1.1z"/></symbol><symbol viewBox="0 0 64 64" id="leaf" xmlns="http://www.w3.org/2000/svg"><path class="aust0" d="M3.198 63.989a.969.969 0 0 1-.924-1.259c.143-.454 3.57-11.192 10.22-16.437a.968.968 0 0 1 1.199 1.521C7.518 52.685 4.155 63.205 4.122 63.31a.97.97 0 0 1-.924.679z"/><path class="aust0" d="M27.686 59.282c-6.946 0-12.233-3.951-15.315-11.432C5.818 45.878 1.819 42.444.484 37.64c-2.248-8.087 3.744-18.243 9.559-24.483a.97.97 0 0 1 1.462.052l3.728 4.629-.69-8.198a.97.97 0 0 1 .385-.857C24.631 1.533 37.592.011 46.756.011c5.46 0 10.996.527 16.455 1.565a.97.97 0 0 1 .731 1.279c-1.816 5.061-1.669 12.207-1.539 18.512.042 2.012.081 3.913.054 5.647a.969.969 0 0 1-.835.945l-10.415 1.446 8.667 2.512a.969.969 0 0 1 .671 1.162c-1.433 5.824-4.253 10.717-8.382 14.541-5.807 5.379-15.704 11.662-24.477 11.662zM10.708 15.307C5.13 21.619.528 30.568 2.35 37.122c1.174 4.22 4.878 7.249 11.01 9 .29.083.525.296.635.577 2.777 7.064 7.383 10.646 13.69 10.647 8.213 0 17.611-6.006 23.163-11.149 3.633-3.365 6.18-7.628 7.582-12.683L46.305 30a.968.968 0 0 1 .137-1.89l14.088-1.956a195.61 195.61 0 0 0-.062-4.748c-.125-6.05-.265-12.854 1.299-18.126a87.532 87.532 0 0 0-15.01-1.332c-8.734 0-21.007 1.41-30.238 8.07l.91 10.81a.968.968 0 0 1-1.719.689l-5.002-6.21z"/><path class="aust0" d="M17.228 42.576a.968.968 0 0 1-.946-1.18c3.874-17.323 34.854-32.243 36.171-32.87a.968.968 0 1 1 .833 1.75c-.314.149-31.445 15.139-35.113 31.543a.972.972 0 0 1-.945.757z"/></symbol><symbol viewBox="0 0 64 64" id="lime" xmlns="http://www.w3.org/2000/svg"><path class="avst0" d="M25.322 64c-.001 0-.001 0 0 0-4.491 0-8.56-1.143-11.825-3.314a5.875 5.875 0 0 1-.171.119c-1.308.884-2.801 1.352-4.315 1.352-2.173 0-4.067-.957-5.195-2.626-.971-1.435-1.245-3.206-.772-4.985.458-1.726 1.572-3.258 3.135-4.315l.173-.113c-1.876-9.052 3.362-19.72 12.98-26.222 5.333-3.605 11.494-5.591 17.347-5.591 4.49 0 8.558 1.143 11.824 3.314.056-.041.112-.08.168-.118 1.311-.886 2.803-1.354 4.317-1.354 2.173 0 4.067.957 5.194 2.625.97 1.435 1.245 3.206.772 4.985-.458 1.726-1.572 3.258-3.136 4.315a8.668 8.668 0 0 1-.173.114c1.877 9.053-3.361 19.72-12.98 26.222C37.334 62.014 31.174 64 25.322 64zM13.45 58.272c.222 0 .446.069.635.208 3.003 2.208 6.887 3.374 11.235 3.374h.001c5.429 0 11.162-1.855 16.143-5.223 9.169-6.198 14.069-16.364 11.916-24.72a1.072 1.072 0 0 1 .563-1.229c.266-.132.48-.254.672-.385 1.136-.768 1.94-1.865 2.266-3.09.311-1.171.142-2.319-.476-3.233-.722-1.069-1.968-1.682-3.417-1.682-1.084 0-2.161.341-3.115.985a6.001 6.001 0 0 0-.612.483 1.074 1.074 0 0 1-1.348.063c-3.003-2.208-6.888-3.374-11.235-3.374-5.43 0-11.163 1.855-16.145 5.223-9.168 6.2-14.068 16.365-11.915 24.721a1.072 1.072 0 0 1-.561 1.228 6.033 6.033 0 0 0-.68.389c-1.13.765-1.934 1.861-2.26 3.087-.311 1.171-.142 2.319.476 3.233.723 1.07 1.969 1.683 3.418 1.683 1.084 0 2.161-.341 3.115-.985.189-.127.383-.281.614-.485.201-.18.456-.271.71-.271zm38.823-39.867c-3.594 0-6.796-.705-9.516-2.096-7.883-4.032-10.98-13.396-11.108-13.793a1.071 1.071 0 0 1 .69-1.349C32.487 1.119 35.99 0 40.506 0c3.595 0 6.797.706 9.518 2.097 7.882 4.03 10.978 13.395 11.106 13.792a1.071 1.071 0 0 1-.69 1.349c-.147.049-3.651 1.167-8.167 1.167zM34.094 2.913c1.019 2.467 4.027 8.615 9.64 11.486 2.415 1.235 5.289 1.861 8.54 1.861 2.743 0 5.105-.452 6.413-.767-1.019-2.466-4.026-8.615-9.639-11.486-2.416-1.236-5.289-1.862-8.542-1.862-2.734 0-5.1.454-6.412.768z"/><path class="avst0" d="M53.675 26.08a1.072 1.072 0 0 1-.569-1.983c.06-.039 3.043-2.006 6.033-8.336a1.073 1.073 0 0 1 1.94.916c-3.314 7.017-6.701 9.157-6.843 9.244a1.073 1.073 0 0 1-.561.159zM12.824 47.408a1.072 1.072 0 0 1-1.055-1.274c.093-.487 2.368-11.983 9.897-17.074 4.013-2.713 8.561-4.255 13.519-4.583a1.072 1.072 0 1 1 .142 2.14c-4.573.303-8.765 1.722-12.459 4.22-6.799 4.597-8.971 15.589-8.992 15.7a1.072 1.072 0 0 1-1.052.871zM41.63 26.799a.89.89 0 0 1-.073-.003l-.997-.067a1.072 1.072 0 1 1 .144-2.14l.997.067a1.072 1.072 0 0 1-.071 2.143z"/></symbol><symbol viewBox="0 0 64 64" id="medal" xmlns="http://www.w3.org/2000/svg"><path class="awst0" d="M31.578 42.902c-1.228 0-2.334-.738-3.034-2.026-.577-1.062-1.83-1.776-3.117-1.776-.427 0-.835.077-1.214.229-1.473.592-2.957.357-3.877-.59-.649-.667-.988-1.647-.956-2.757.048-1.657-1.31-3.252-2.967-3.484-1.347-.188-2.395-.882-2.874-1.903-.476-1.016-.342-2.256.37-3.402.875-1.409.503-3.462-.812-4.482-1.07-.83-1.629-1.949-1.535-3.069.095-1.121.835-2.132 2.031-2.773 1.469-.788 2.183-2.75 1.559-4.284-.508-1.247-.442-2.447.184-3.378.637-.947 1.791-1.479 3.179-1.435l.088.001c1.66 0 3.197-1.32 3.428-2.943.27-1.906 1.531-3.138 3.213-3.138.694 0 1.425.223 2.116.646.51.312 1.118.477 1.758.477 1.105 0 2.142-.48 2.775-1.283C32.669.544 33.675 0 34.724 0c1.228 0 2.334.738 3.033 2.025.578 1.063 1.831 1.777 3.118 1.777.427 0 .835-.077 1.213-.229 1.474-.591 2.958-.357 3.877.589.649.668.989 1.647.957 2.759-.049 1.657 1.31 3.251 2.966 3.482 1.348.188 2.395.882 2.874 1.904.476 1.017.342 2.257-.369 3.403-.875 1.41-.504 3.461.811 4.481 1.07.831 1.63 1.95 1.535 3.07-.095 1.122-.835 2.132-2.031 2.773-1.469.787-2.183 2.749-1.559 4.284.507 1.247.441 2.447-.185 3.378-.646.96-1.777 1.475-3.179 1.434l-.085-.002c-1.66 0-3.198 1.32-3.428 2.943-.27 1.906-1.531 3.138-3.212 3.138-.694 0-1.426-.223-2.116-.646a3.36 3.36 0 0 0-1.757-.476c-1.105 0-2.143.479-2.775 1.283-.779.988-1.785 1.532-2.834 1.532zm-6.151-5.696c1.991 0 3.868 1.085 4.781 2.765.363.668.849 1.036 1.369 1.036.457 0 .935-.287 1.346-.809.988-1.256 2.582-2.005 4.263-2.005.989 0 1.938.261 2.746.755.393.24.783.368 1.127.368 1.014 0 1.273-1.056 1.337-1.51.37-2.609 2.787-4.65 5.444-4.569l.096.001c.68 0 1.198-.213 1.458-.599.264-.392.264-.962.002-1.607-.989-2.433.097-5.424 2.419-6.668.629-.337.998-.785 1.038-1.263.04-.476-.247-.978-.809-1.415-2.081-1.614-2.646-4.744-1.259-6.976.372-.6.466-1.168.263-1.6-.205-.437-.71-.733-1.421-.832-2.611-.364-4.674-2.793-4.597-5.413.017-.594-.133-1.086-.422-1.384-.39-.402-1.057-.455-1.814-.151a5.132 5.132 0 0 1-1.918.365c-1.991 0-3.868-1.086-4.782-2.766-.363-.668-.849-1.035-1.369-1.035-.456 0-.934.287-1.345.809-.989 1.256-2.582 2.006-4.263 2.006a5.254 5.254 0 0 1-2.746-.755c-.392-.24-.782-.367-1.127-.367-1.014 0-1.273 1.056-1.338 1.51-.364 2.564-2.694 4.571-5.303 4.571-.047 0-.094 0-.141-.002l-.094-.001c-.681 0-1.199.213-1.46.6-.263.391-.264.962-.001 1.607.989 2.432-.096 5.422-2.418 6.667-.629.337-.998.786-1.038 1.263-.04.476.247.978.809 1.414 2.08 1.614 2.645 4.744 1.26 6.977-.372.6-.466 1.168-.264 1.599.205.437.709.732 1.421.832 2.612.365 4.674 2.794 4.598 5.414-.017.594.133 1.086.422 1.383.391.403 1.058.456 1.814.152a5.072 5.072 0 0 1 1.916-.367z"/><path class="awst0" d="M33.151 37.134c-8.648 0-15.683-7.036-15.683-15.683S24.503 5.767 33.151 5.767s15.683 7.036 15.683 15.683-7.035 15.684-15.683 15.684zm0-29.473c-7.603 0-13.789 6.186-13.789 13.789s6.186 13.789 13.789 13.789S46.94 29.054 46.94 21.45c0-7.603-6.186-13.789-13.789-13.789zM50.145 60.43a.945.945 0 0 1-.659-.267 73.638 73.638 0 0 1-14.799-20.302.946.946 0 1 1 1.697-.839 71.74 71.74 0 0 0 12.673 18.029 64.322 64.322 0 0 1 .187-7.968.944.944 0 0 1 1.038-.86c2.508.252 5.02.348 7.491.286a59.605 59.605 0 0 1-9.977-13.96.947.947 0 1 1 1.683-.869 57.714 57.714 0 0 0 11.137 15.001.947.947 0 0 1-.601 1.625 61.313 61.313 0 0 1-8.96-.109 63.284 63.284 0 0 0 .031 9.214.946.946 0 0 1-.941 1.019zM13.855 64a.947.947 0 0 1-.944-1.019c.235-3.096.245-6.19.031-9.214a61.047 61.047 0 0 1-8.96.109.947.947 0 0 1-.6-1.625 58.24 58.24 0 0 0 13.653-20.583.947.947 0 1 1 1.766.686A60.205 60.205 0 0 1 6.223 52.079a60.295 60.295 0 0 0 7.493-.286.95.95 0 0 1 1.038.86c.227 2.614.289 5.284.188 7.968a71.843 71.843 0 0 0 11.923-16.553.946.946 0 1 1 1.678.878 73.755 73.755 0 0 1-14.028 18.787.95.95 0 0 1-.66.267z"/></symbol><symbol viewBox="0 0 64 64" id="menu" xmlns="http://www.w3.org/2000/svg"><path class="axst0" d="M56.242 64H7.758C3.48 64 0 60.52 0 56.242V7.758C0 3.48 3.48 0 7.758 0h48.485C60.52 0 64 3.48 64 7.758v48.485C64 60.52 60.52 64 56.242 64zM7.758 1.939A5.825 5.825 0 0 0 1.94 7.757v48.485a5.825 5.825 0 0 0 5.818 5.818h48.485a5.825 5.825 0 0 0 5.818-5.818V7.758a5.825 5.825 0 0 0-5.818-5.818H7.758z"/><path class="axst0" d="M55 14.23H9a1 1 0 0 1-1-1v-1a1 1 0 0 1 1-1h46a1 1 0 0 1 1 1v1a1 1 0 0 1-1 1zm0 10.385H9a1 1 0 0 1-1-1v-1a1 1 0 0 1 1-1h46a1 1 0 0 1 1 1v1a1 1 0 0 1-1 1zM55 35H9a1 1 0 0 1-1-1v-1a1 1 0 0 1 1-1h46a1 1 0 0 1 1 1v1a1 1 0 0 1-1 1zM17.111 45.503l.151-1.584h-.075l-.573 1.448-2.744 4.764h-.377l-2.91-4.779-.543-1.432h-.075l.211 1.568v7.101H9V42.035h.935l3.302 5.398.497 1.176h.03l.467-1.206 3.151-5.368h.98v10.554H17.11v-7.086zm5.323-3.468h5.745v1.116h-4.493v3.453h4.116v1.115h-4.116v3.755h4.568v1.115h-5.82V42.035zm15.907 5.715h-5.066v4.839h-1.252V42.035h1.252v4.598h5.066v-4.598h1.251v10.554h-1.251V47.75zm6.573-1.117h1.869c.08-1.538.467-2.718 1.161-3.543.693-.824 1.683-1.236 2.97-1.236.734 0 1.362.131 1.885.392.523.261.945.63 1.267 1.108.321.478.558 1.05.709 1.719.15.669.225 1.415.225 2.24 0 1.759-.337 3.109-1.009 4.048-.674.94-1.699 1.41-3.076 1.41-.693 0-1.297-.119-1.809-.354a3.352 3.352 0 0 1-1.274-1.01c-.337-.437-.591-.965-.762-1.583a9.18 9.18 0 0 1-.301-2.073h-1.854v4.839h-1.252V42.035h1.252v4.598zm3.196.68c0 .583.05 1.136.15 1.658.1.523.261.983.481 1.379.221.398.509.714.865.95.355.236.794.354 1.316.354.932 0 1.623-.352 2.074-1.056.451-.703.677-1.799.677-3.286 0-.573-.046-1.124-.136-1.651a4.488 4.488 0 0 0-.458-1.388 2.649 2.649 0 0 0-.849-.95c-.351-.236-.787-.354-1.308-.354-.933 0-1.634.354-2.105 1.063-.471.709-.707 1.803-.707 3.281z"/></symbol><symbol viewBox="0 0 64 64" id="microwave" xmlns="http://www.w3.org/2000/svg"><path class="ayst0" d="M14.9 46.3h1.4v3.1h-1.4zm32.8 0h1.4v3.1h-1.4z"/><path class="ayst1" d="M44.4 20.3h6.5v4.6h-6.5zm0 7.4h6.5v1.7h-6.5z"/><path class="ayst0" d="M10.2 14h44.1v32.8H9.6V14h.6zm43 1.2H10.8v30.3h42.3V15.2z"/><path class="ayst0" d="M15.7 19.1h24.5c1.1 0 2.1.9 2.1 2.1v18.4c0 1.1-.9 2.1-2.1 2.1H15.7c-1.1 0-2.1-.9-2.1-2.1V21.1c.1-1.1 1-2 2.1-2zm24.6 1.2H15.7c-.5 0-.9.4-.9.9v18.4c0 .5.4.9.9.9h24.5c.5 0 .9-.4.9-.9V21.1c0-.4-.4-.8-.8-.8zm7.4 14.4c.9 0 1.7.4 2.2.9.6.6.9 1.4.9 2.2 0 .9-.3 1.7-.9 2.2-.6.6-1.4.9-2.2.9-.9 0-1.7-.4-2.2-.9-.6-.6-.9-1.4-.9-2.2 0-.9.3-1.7.9-2.2.5-.5 1.3-.9 2.2-.9zm1.2 2c-.3-.3-.7-.5-1.2-.5s-.9.2-1.2.5c-.3.3-.5.7-.5 1.2s.2.9.5 1.2c.3.3.7.5 1.2.5s.9-.2 1.2-.5c.3-.3.5-.7.5-1.2s-.2-.9-.5-1.2z"/></symbol><symbol viewBox="0 0 64 64" id="money" xmlns="http://www.w3.org/2000/svg"><path class="azst0" d="M54.1 60.8H4.9c-2.7 0-4.9-2.2-4.9-4.9 0-.5.4-1 1-1s1 .4 1 1c0 1.6 1.4 3 3 3h49.1c1.6 0 3-1.3 3-3v-8.8c0-.5.4-1 1-1s1 .4 1 1v8.8c-.1 2.7-2.3 4.9-5 4.9zM58 31c-.5 0-1-.4-1-1V18.8c0-1.6-1.4-3-3-3H13.9c-.5 0-1-.4-1-1 0-.5.4-1 1-1H54c2.7 0 4.9 2.2 4.9 4.9V30c.1.6-.3 1-.9 1z"/><path class="azst0" d="M1 56.8c-.5 0-1-.4-1-1V12.1c0-3.3 1.6-8.9 12.5-8.9h35c2.7 0 4.9 2.2 4.9 4.9v6.7c0 .5-.4 1-1 1s-1-.4-1-1V8.1c0-1.6-1.3-3-3-3h-35c-7 0-10.6 2.4-10.6 7v43.8c.1.5-.3.9-.8.9z"/><path class="azst0" d="M13.5 15.8c-6.8 0-7.6-2.4-7.6-3.4 0-2.2 3.2-4 7.3-4h31.2c.5 0 1 .4 1 1s-.5 1-1 1H13.3c-3.5 0-5.4 1.4-5.4 2 0 .5 1.4 1.5 5.6 1.5.5 0 1 .4 1 1-.1.5-.5.9-1 .9zM43.9 31c-2.1 0-3.8 1.7-3.8 3.8v2.1c0 2.1 1.7 3.8 3.8 3.8h14.4c2.1 0 3.8-1.7 3.8-3.8v-2.1c0-2.1-1.7-3.8-3.8-3.8H43.9zm14.4 11.6H43.9c-3.2 0-5.7-2.6-5.7-5.7v-2.1c0-3.1 2.5-5.7 5.7-5.7h14.4c3.2 0 5.7 2.6 5.7 5.7v2.1c0 3.1-2.5 5.7-5.7 5.7z"/><path class="azst0" d="M44.4 37.4c-.9 0-1.6-.7-1.6-1.6 0-.9.7-1.6 1.6-1.6.8 0 1.6.7 1.6 1.6 0 .9-.7 1.6-1.6 1.6z"/></symbol><symbol viewBox="0 0 64 64" id="no" xmlns="http://www.w3.org/2000/svg"><path class="bast0" d="M10.4 54.7c-.3 0-.6-.1-.8-.3-.5-.5-.5-1.2 0-1.7L52.7 9.6c.5-.5 1.2-.5 1.7 0s.5 1.2 0 1.7L11.3 54.4c-.3.2-.6.3-.9.3z"/><path class="bast0" d="M10.4 9.3c-.3 0-.6.1-.8.3-.5.5-.5 1.2 0 1.7l43.1 43.2c.5.5 1.2.5 1.7 0s.5-1.2 0-1.7L11.3 9.6c-.3-.2-.6-.3-.9-.3z"/><path class="bast0" d="M32 64c-3.8 0-7.7-.7-11.4-2.1C6.3 56.4-2.2 41.5.5 26.5c.1-.7.7-1.1 1.4-1 .6.1 1.1.7 1 1.4-2.5 14 5.4 27.8 18.6 32.8 7.4 2.8 15.4 2.6 22.6-.7 7.2-3.2 12.8-9.1 15.6-16.5 2.8-7.4 2.6-15.4-.7-22.6-3.2-7.2-9.1-12.7-16.5-15.6C29.7-.5 15.4 3.9 7.6 15.2c-.4.5-1.1.7-1.7.3-.5-.4-.7-1.1-.3-1.7C14 1.7 29.5-3.2 43.4 2.1c8 3 14.3 9 17.8 16.8 3.5 7.8 3.7 16.5.7 24.4-3 8-9 14.3-16.8 17.8-4.2 2-8.6 2.9-13.1 2.9z"/></symbol><symbol viewBox="0 0 64 64" id="oven" xmlns="http://www.w3.org/2000/svg"><path class="bbst0" d="M14 13.3h36.7v37.5H13.3V13.3h.7zm35.3 1.5H14.7v34.6h34.6V14.8z"/><path class="bbst0" d="M18.7 25.5h26.5c.6 0 1.1.2 1.4.6.4.4.6.9.6 1.4v18.1c0 .5-.2 1.1-.6 1.4-.4.4-.9.6-1.4.6H18.7c-.5 0-1.1-.2-1.4-.6-.4-.4-.6-.9-.6-1.4V27.5c0-.6.2-1.1.6-1.4.4-.4.9-.6 1.4-.6zm26.6 1.4H18.7c-.2 0-.3.1-.4.2-.1.1-.2.3-.2.4v18.1c0 .2.1.3.2.4.1.1.3.2.4.2h26.5c.2 0 .3-.1.4-.2s.2-.3.2-.4V27.5c0-.2-.1-.3-.2-.4 0-.1-.2-.2-.3-.2zM18.8 50.7h1.4v2.6h-1.4zm25 0h1.4v2.6h-1.4z"/><path class="bbst0" d="M17.4 28.5h29.1v1.4H17.4z"/><path class="bbst1" d="M43.7 18.7c-.7 0-1.3.6-1.3 1.3 0 .7.6 1.3 1.3 1.3.7 0 1.3-.6 1.3-1.3 0-.7-.6-1.3-1.3-1.3zm-4.9 0c-.7 0-1.3.6-1.3 1.3 0 .7.6 1.3 1.3 1.3.7 0 1.3-.6 1.3-1.3 0-.7-.6-1.3-1.3-1.3zm-4.9 0c-.7 0-1.3.6-1.3 1.3 0 .7.6 1.3 1.3 1.3.7 0 1.3-.6 1.3-1.3 0-.7-.6-1.3-1.3-1.3zm-13.6 0c-.7 0-1.3.6-1.3 1.3 0 .7.6 1.3 1.3 1.3.7 0 1.3-.6 1.3-1.3 0-.7-.6-1.3-1.3-1.3z"/><path class="bbst0" d="M16.9 10.7h11.6v1.4H16.9zm18.6 0h11.6v1.4H35.5z"/></symbol><symbol viewBox="0 0 64 64" id="pen" xmlns="http://www.w3.org/2000/svg"><path class="bcst0" d="M16.6 34.4c-.2 0-.5-.1-.6-.3-.3-.3-.3-.9 0-1.2L45.9 3c.3-.3.9-.3 1.2 0 .4.4.4.9 0 1.3L17.3 34.1c-.2.2-.4.3-.7.3z"/><path class="bcst0" d="M3.3 64c-1.3 0-1.9-.4-2.3-.8-1-1-1.9-3.6 3.2-13.8C6.8 44.1 9.9 39 10 39c0-.1.1-.1.1-.2l6.9-6.9c.4-.4.9-.4 1.3 0 .3.3.3.9 0 1.3L11.4 40c-.4.7-3.2 5.3-5.7 10.3C1 60 2 61.7 2.2 62c.3.3 2 1.3 11.8-3.5 4.9-2.4 9.6-5.2 10.2-5.7l3.6-3.6c.4-.3.9-.3 1.3 0 .3.4.3.9 0 1.2l-3.7 3.7c-.1.1-.1.1-.2.1s-5.1 3.1-10.5 5.8c-6.1 3.1-9.5 4-11.4 4z"/><path class="bcst0" d="M29.1 50c-.2 0-.5-.1-.6-.3-.4-.4-.4-.9 0-1.3L60 17.1c.3-.3.9-.3 1.2 0 .4.4.4.9 0 1.3L29.8 49.8c-.2.1-.4.2-.7.2zM10.5 60.8c-.4 0-.7-.2-.8-.6 0 0-.6-1.8-2-3.2-1.4-1.4-3.3-2.1-3.3-2.1-.5-.2-.7-.7-.5-1.1.2-.5.7-.7 1.1-.5.1 0 2.3.9 4 2.5s2.4 3.8 2.4 3.9c.2.5-.1 1-.6 1.1h-.3zm13.9-7c-.3 0-.6-.2-.8-.4 0 0-2.2-3.5-5.5-6.8s-7-5.7-7-5.7c-.4-.3-.5-.8-.3-1.2.3-.4.8-.5 1.2-.3.2.1 3.9 2.5 7.3 5.9 3.4 3.4 5.6 7 5.7 7.1.3.4.1 1-.3 1.2 0 .2-.1.2-.3.2z"/><path class="bcst0" d="M60.6 18.6c-.3 0-.6-.1-.7-.4 0 0-2.9-4.2-6.3-7.6-3.4-3.4-7.5-6.2-7.6-6.3-.4-.3-.5-.8-.2-1.2.3-.4.8-.5 1.2-.2.2.1 4.3 2.9 7.8 6.5 3.5 3.5 6.4 7.6 6.5 7.8.3.4.2.9-.2 1.2-.2.1-.4.2-.5.2zm-5.2 5.2c-.3 0-.6-.1-.7-.4 0-.1-2.9-4.2-6.3-7.6-3.4-3.4-7.5-6.2-7.6-6.3-.4-.3-.5-.8-.2-1.2.3-.4.8-.5 1.2-.2.2.1 4.3 2.9 7.8 6.5 3.5 3.5 6.4 7.7 6.5 7.8.3.4.2 1-.2 1.2-.2.1-.3.2-.5.2z"/><path class="bcst0" d="M60.2 16.9c-.2 0-.5-.1-.6-.3-.3-.4-.3-.9 0-1.3 1.9-1.9 2.7-3.6 2.4-5.4-.2-1.6-1.2-3.3-3.1-5.2-3.9-3.9-6.8-4-10.4-.5-.3.4-.9.4-1.2 0-.4-.3-.4-.9 0-1.2 5.6-5.6 10-2.4 12.9.5 2.2 2.2 3.4 4.2 3.6 6.2.3 2.3-.7 4.6-3 6.9-.2.2-.4.3-.6.3zM24.4 45.3c-.2 0-.5-.1-.6-.3-.4-.4-.4-.9 0-1.3l22.9-22.9c.3-.4.9-.4 1.2 0 .4.3.4.9 0 1.3L25 45c-.1.2-.4.3-.6.3zm-5.1-5.1c-.2 0-.5-.1-.6-.3-.3-.3-.3-.9 0-1.2l22.9-22.9c.3-.3.9-.3 1.2 0 .4.4.4.9 0 1.3L20 40c-.2.1-.4.2-.7.2z"/></symbol><symbol viewBox="0 0 64 64" id="people" xmlns="http://www.w3.org/2000/svg"><path class="bdst0" d="M32.063 18.882c-4.818 0-8.306-6.318-8.306-10.576 0-4.58 3.726-8.305 8.306-8.305s8.306 3.726 8.306 8.305c0 4.258-3.488 10.576-8.306 10.576zm0-16.718a6.148 6.148 0 0 0-6.141 6.141c0 3.673 2.978 8.412 6.141 8.412s6.141-4.739 6.141-8.412a6.148 6.148 0 0 0-6.141-6.141zm10.009 40.704h-3.78a1.081 1.081 0 1 1 0-2.164h2.776l1.25-16.503c-1.176-.668-4.545-2.235-10.255-2.235-5.704 0-9.073 1.565-10.255 2.235l1.249 16.503h2.776a1.081 1.081 0 1 1 0 2.164h-3.78a1.082 1.082 0 0 1-1.079-1.001L19.6 23.713a1.084 1.084 0 0 1 .427-.945c.161-.121 4.021-2.967 12.035-2.967 8.016 0 11.875 2.846 12.035 2.968.294.222.454.578.427.945L43.15 41.868a1.08 1.08 0 0 1-1.078 1z"/><path class="bdst0" d="M36.002 64h-7.877a1.082 1.082 0 0 1-1.076-.966l-2.291-21.132a1.083 1.083 0 0 1 2.152-.234l2.186 20.166h5.935l2.186-20.166a1.082 1.082 0 1 1 2.152.234l-2.29 21.132c-.061.55-.525.966-1.077.966zm16.314-40.712c-4.409 0-7.6-5.764-7.6-9.65 0-4.191 3.409-7.6 7.6-7.6s7.6 3.409 7.6 7.6c.001 3.887-3.191 9.65-7.6 9.65zm0-15.085a5.442 5.442 0 0 0-5.436 5.436c0 3.268 2.636 7.485 5.436 7.485s5.436-4.217 5.436-7.485a5.441 5.441 0 0 0-5.436-5.436zm9.031 36.729h-3.41a1.081 1.081 0 1 1 0-2.164h2.407l1.103-14.567c-1.758-.633-6.223-2.129-9.131-2.129-3.674 0-8.691 1.859-8.741 1.878a1.082 1.082 0 1 1-.759-2.028c.22-.082 5.43-2.015 9.5-2.015 4.077 0 10.397 2.45 10.665 2.554.443.173.722.616.686 1.09l-1.24 16.381c-.043.564-.514 1-1.08 1z"/><path class="bdst0" d="M55.871 61.662a1.082 1.082 0 0 1-1.075-1.215l2.067-16.73a1.082 1.082 0 1 1 2.148.265l-2.067 16.73c-.067.549-.534.95-1.073.95zM11.684 23.288c-4.409 0-7.6-5.764-7.6-9.65 0-4.191 3.409-7.6 7.6-7.6s7.6 3.409 7.6 7.6c0 3.887-3.191 9.65-7.6 9.65zm0-15.085a5.442 5.442 0 0 0-5.436 5.436c0 3.268 2.636 7.485 5.436 7.485s5.436-4.217 5.436-7.485a5.442 5.442 0 0 0-5.436-5.436zM6.063 44.932h-3.41a1.082 1.082 0 0 1-1.079-1.001L.333 27.551a1.082 1.082 0 0 1 .686-1.09c.267-.104 6.588-2.554 10.665-2.554 4.082 0 9.436 2.122 9.662 2.212a1.081 1.081 0 1 1-.804 2.009c-.052-.02-5.197-2.058-8.859-2.058-2.912 0-7.374 1.496-9.131 2.129l1.103 14.568h2.407c.598 0 1.082.484 1.082 1.082a1.08 1.08 0 0 1-1.081 1.083z"/><path class="bdst0" d="M8.129 61.662a1.083 1.083 0 0 1-1.073-.95L4.99 43.982a1.083 1.083 0 0 1 2.148-.265l2.066 16.73a1.083 1.083 0 0 1-1.075 1.215z"/></symbol><symbol viewBox="0 0 64 64" id="person" xmlns="http://www.w3.org/2000/svg"><path d="M31.7 64c-.2 0-.3 0-.5-.1l-18.8-9c-.4-.2-.7-.7-.6-1.1 0-.3 1.1-6.7 4.2-13 1.3-2.6 2.7-4.8 4.3-6.5.4-.4 1.1-.5 1.5-.1.4.4.5 1.1.1 1.5-1.4 1.6-2.8 3.7-3.9 6.1-2.3 4.8-3.5 9.8-3.8 11.6l17.6 8.4L50 53.4c-.7-3-3.4-13.9-9.8-19.4-.4-.4-.5-1-.1-1.5.4-.4 1-.5 1.5-.1 8.1 6.8 10.6 20.8 10.7 21.4.1.5-.2.9-.6 1.1l-19.5 9c-.2.1-.4.1-.5.1z"/><path d="M31.7 33.6c-5.5 0-10.2-6.2-12-12.4-.2-.6.2-1.1.7-1.3.6-.2 1.1.2 1.3.7 1.5 5.3 5.5 10.9 9.9 10.9 5.7 0 10.3-8.9 10.6-14.7 0-.6.5-1 1.1-1 .6 0 1 .5 1 1.1-.2 6.6-5.5 16.7-12.6 16.7z"/><path d="M18.3 22.2c-.5 0-.9-.3-1-.7-.4-1.3-.9-3.5-.9-5.9C16.4 7 23.4 0 32 0c8.1 0 15 6.4 15.6 14.5 0 .2 0 .4-.1.5-1.6 3.2-8.9 4.1-9.7 4.2-.3 0-.7-.1-.9-.4-.2-.3-.3-.6-.2-1 0 0 .3-1.1.4-3-.1.1-.1.2-.2.2-4.4 3.8-13.4 7-18.6 7.2.1 0 0 0 0 0zM32 2.1c-7.4 0-13.5 6.1-13.5 13.5 0 1.7.3 3.3.6 4.5 4.8-.5 12.6-3.3 16.4-6.7.9-.8 1.4-1.5 1.7-2.1.2-.5.7-.7 1.2-.6.5.1.8.5.9 1 0 1 0 1.9-.1 2.8-.1 1-.1 1.8-.2 2.4 2.6-.4 5.6-1.4 6.5-2.6C44.8 7.4 39 2.1 32 2.1z"/></symbol><symbol viewBox="0 0 64 64" id="phone" xmlns="http://www.w3.org/2000/svg"><path class="bfst0" d="M55.869 0H8.131C3.648 0 0 3.648 0 8.131v47.738C0 60.353 3.648 64 8.131 64h47.738C60.353 64 64 60.353 64 55.869V8.131C64 3.648 60.353 0 55.869 0zm5.237 8.131v47.738a5.243 5.243 0 0 1-5.237 5.237H8.131a5.243 5.243 0 0 1-5.237-5.237V8.131a5.243 5.243 0 0 1 5.237-5.237h47.738a5.243 5.243 0 0 1 5.237 5.237z"/><path class="bfst0" d="M55.956 44.042a1.596 1.596 0 0 0-.108-.095l-8.497-6.631a4.542 4.542 0 0 0-3.191-1.295 4.533 4.533 0 0 0-3.23 1.334L36.784 41.5c-.722.722-1.043 1.67-1.18 2.465-2.237-.396-6.857-1.624-10.512-5.279-3.569-3.569-4.953-8.143-5.445-10.398a4.514 4.514 0 0 0 2.63-1.294l4.146-4.145a4.536 4.536 0 0 0 1.334-3.23c0-1.197-.457-2.327-1.244-3.132l-6.426-8.762a1.324 1.324 0 0 0-.122-.143 4.54 4.54 0 0 0-3.23-1.334c-1.223 0-2.37.474-3.23 1.334l-5.319 5.319c-1.19 1.189-1.955 6.629-1.15 12.534.772 5.654 3.231 13.932 10.564 21.265 9.134 9.134 18.133 11.052 24.074 11.052 4.352 0 8.167-1.121 9.204-2.158l5.084-5.084a4.541 4.541 0 0 0 1.334-3.23 4.537 4.537 0 0 0-1.34-3.238zM18.965 25.821l-3.657-3.658a1.248 1.248 0 0 0-1.764 1.764l3.395 3.395c.172 1.332 1.267 8.006 6.389 13.128 4.879 4.88 11.097 5.924 12.868 6.129l3.502 3.503a1.242 1.242 0 0 0 1.763.001 1.24 1.24 0 0 0 .001-1.763l-3.456-3.456c.027-.521.159-1.215.542-1.599l4.146-4.145c.778-.777 2.156-.777 2.932 0 .037.037.075.071.115.102l8.483 6.618c.373.386.578.897.578 1.44 0 .557-.214 1.077-.604 1.467l-5.073 5.073c-.354.305-3.117 1.439-7.452 1.439-5.469 0-13.779-1.79-22.31-10.321C6.738 32.31 8.92 15.983 9.949 14.665l5.319-5.319a2.06 2.06 0 0 1 1.467-.604c.54 0 1.049.203 1.38.51l6.422 8.757c.037.05.078.098.123.143.389.389.604.91.604 1.467a2.06 2.06 0 0 1-.603 1.467l-4.146 4.145a2.089 2.089 0 0 1-1.55.59zm11.82-15.176c.294.159.633.193.952.098a16.078 16.078 0 0 1 15.992 4.035 16.084 16.084 0 0 1 4.035 15.993 1.25 1.25 0 0 0 2.396.715c1.959-6.561.171-13.641-4.664-18.476S37.583 6.389 31.022 8.348c-.32.095-.584.31-.743.604a1.242 1.242 0 0 0-.098.951c.096.32.311.584.604.742z"/><path class="bfst0" d="M41.954 29.2a1.24 1.24 0 0 0 .886.367 1.25 1.25 0 0 0 1.185-.855 8.04 8.04 0 0 0-1.95-8.279 8.079 8.079 0 0 0-8.038-2.025 1.24 1.24 0 0 0-.742.606 1.244 1.244 0 0 0-.097.95c.095.319.308.582.602.741.295.16.636.196.955.099a5.574 5.574 0 0 1 5.552 1.398 5.556 5.556 0 0 1 1.346 5.72c-.151.452-.035.942.301 1.278z"/></symbol><symbol viewBox="0 0 64 64" id="photo" xmlns="http://www.w3.org/2000/svg"><path class="bgst0" d="M54.573 52.333H1.057A1.057 1.057 0 0 1 0 51.276V4.861c0-.584.473-1.057 1.057-1.057h53.517c.584 0 1.057.473 1.057 1.057v46.415a1.058 1.058 0 0 1-1.058 1.057zM2.114 50.219h51.403V5.918H2.114v44.301z"/><path class="bgst0" d="M62.943 60.195H7.652a1.057 1.057 0 0 1-1.057-1.057V55.46a1.057 1.057 0 1 1 2.114 0v2.621h53.178V12.999h-3.508a1.057 1.057 0 1 1 0-2.114h4.565c.584 0 1.057.473 1.057 1.057v47.197a1.058 1.058 0 0 1-1.058 1.056z"/><path class="bgst0" d="M35.297 45.323c-.259 0-.518-.094-.721-.285L20.277 31.674 1.63 43.716A1.057 1.057 0 0 1 .483 41.94l19.339-12.489a1.058 1.058 0 0 1 1.295.116l14.901 13.927a1.058 1.058 0 0 1-.721 1.829z"/><path class="bgst0" d="M31.032 40.533a1.056 1.056 0 0 1-.539-1.966l12.192-7.213a1.059 1.059 0 0 1 1.105.017l11.35 7.213a1.057 1.057 0 1 1-1.134 1.784l-10.803-6.866-11.634 6.883a1.042 1.042 0 0 1-.537.148zm-17.42-14.324c-3.939 0-7.144-3.205-7.144-7.143 0-3.939 3.205-7.144 7.144-7.144s7.144 3.205 7.144 7.144c0 3.938-3.205 7.143-7.144 7.143zm0-12.174a5.037 5.037 0 0 0-5.031 5.031c0 2.773 2.257 5.03 5.031 5.03s5.031-2.256 5.031-5.03a5.037 5.037 0 0 0-5.031-5.031z"/></symbol><symbol viewBox="0 0 64 64" id="plus" xmlns="http://www.w3.org/2000/svg"><path class="bhst0" d="M31.924 64c-7.093 0-13.941-2.345-19.621-6.779C5.567 51.964 1.28 44.397.234 35.916c-1.046-8.482 1.274-16.862 6.533-23.599C16.204.219 32.948-3.48 46.576 3.52a1.772 1.772 0 1 1-1.62 3.154C32.838.45 17.954 3.741 9.563 14.499c-4.676 5.99-6.739 13.442-5.809 20.983.93 7.541 4.741 14.268 10.732 18.943 5.989 4.676 13.443 6.74 20.983 5.809 7.542-.93 14.269-4.74 18.944-10.731 8.095-10.371 8.062-24.814-.081-35.121a1.773 1.773 0 1 1 2.782-2.198c9.16 11.594 9.199 27.838.095 39.501-5.258 6.737-12.824 11.023-21.306 12.069a32.32 32.32 0 0 1-3.979.246z"/><path class="bhst0" d="M31.988 50.801a1.773 1.773 0 0 1-1.773-1.773V14.972a1.773 1.773 0 0 1 3.546 0v34.055c0 .98-.793 1.774-1.773 1.774z"/><path class="bhst0" d="M49.016 33.773H14.961a1.773 1.773 0 0 1 0-3.546h34.055a1.773 1.773 0 0 1 0 3.546z"/></symbol><symbol viewBox="0 0 64 64" id="pro" xmlns="http://www.w3.org/2000/svg"><path d="M55.8 64c-.2 0-.3 0-.5-.1l-9.5-5-9.5 5c-.3.2-.8.2-1.1-.1-.3-.2-.5-.6-.4-1l1.8-10.6-7.6-7.5c-.3-.3-.4-.7-.3-1 .1-.4.4-.6.8-.7l10.6-1.5 4.7-9.7c.2-.3.5-.6.9-.6s.7.2.9.6l3.8 7.7c.2.5 0 1.1-.5 1.4-.5.2-1.1 0-1.4-.5l-2.9-5.9-4.1 8.3c-.1.3-.4.5-.8.6l-9.1 1.3 6.6 6.4c.2.2.4.6.3.9l-1.6 9.1 8.2-4.3c.3-.2.7-.2.9 0l8.2 4.3-1.3-9.1c-.1-.3.1-.7.3-.9l6.6-6.4-6.3-.9c-.6-.1-.9-.6-.9-1.2.1-.6.6-.9 1.2-.9l8.3 1.2c.4.1.7.3.8.7.1.4 0 .8-.3 1L55 52.2l1.8 10.6c.1.4-.1.8-.4 1-.2.1-.4.2-.6.2z"/><path d="M20.8 63.9c-.1 0-.3 0-.4-.1l-18.8-9c-.4-.2-.6-.6-.6-1.1 0-.3 1.1-6.7 4.2-13 1.3-2.6 2.7-4.8 4.3-6.5.4-.4 1-.5 1.4-.1.4.4.5 1 .1 1.4-1.4 1.6-2.8 3.7-4 6.1-2.4 4.8-3.5 9.8-3.8 11.7l17.7 8.4 15.8-7.2c.5-.2 1.1 0 1.3.5.2.5 0 1.1-.5 1.3l-16.2 7.4c-.2.2-.3.2-.5.2zm0-30.4c-7.1 0-12.4-10-12.7-16.6 0-.6.4-1 1-1.1.6 0 1 .4 1.1 1 .3 5.8 5 14.7 10.7 14.7 4.5 0 8.5-5.7 10-11.1.2-.5.7-.9 1.3-.7.5.2.9.7.7 1.3-1.8 6.2-6.5 12.5-12.1 12.5z"/><path d="M35.8 22.2s-.1 0 0 0c-5.5-.3-15.1-3.4-19.8-7.2-.1-.1-.3-.2-.4-.3.2 2.1.5 3.2.5 3.2.1.3 0 .7-.2.9-.2.3-.5.4-.9.4-.8-.2-8.5-1-10.2-4.2-.1-.2-.1-.4-.1-.6C5.3 6.3 12.5 0 21.1 0c9.1 0 16.5 7 16.5 15.6 0 2.4-.5 4.6-1 5.9 0 .4-.4.7-.8.7zM14.5 10.7c.4 0 .8.2.9.6.3.6.9 1.4 1.8 2.1 4.1 3.3 12.6 6.2 17.7 6.7.3-1.1.6-2.8.6-4.5C35.7 8.1 29.1 2 21.1 2 13.7 2 7.4 7.4 6.7 14.3c1 1.3 4.4 2.2 7.1 2.7-.1-.6-.2-1.4-.3-2.4-.1-.9-.1-1.9-.1-2.8 0-.5.3-.9.8-1 .2-.1.3-.1.3-.1z"/></symbol><symbol viewBox="0 0 64 64" id="profile" xmlns="http://www.w3.org/2000/svg"><path class="bjst0" d="M55.869 0H8.131C3.648 0 0 3.648 0 8.131v47.738C0 60.353 3.648 64 8.131 64h47.738C60.353 64 64 60.353 64 55.869V8.131C64 3.648 60.353 0 55.869 0zm5.237 8.131v47.738a5.243 5.243 0 0 1-5.237 5.237H8.131a5.243 5.243 0 0 1-5.237-5.237V8.131a5.243 5.243 0 0 1 5.237-5.237h47.738a5.243 5.243 0 0 1 5.237 5.237z"/><path class="bjst0" d="M49.183 55.778l-.02-.135c-.578-3.854-2.932-16.828-9.013-21.963a1.322 1.322 0 0 0-.979-.312c-.357.03-.681.198-.912.471a1.345 1.345 0 0 0 .159 1.891c4.874 4.116 7.121 14.975 7.859 18.544l.012.056-28.618.004.116-.717c.435-2.731 1.341-8.412 2.927-11.644.955-1.943 2.031-3.594 3.2-4.908a1.345 1.345 0 0 0-.111-1.895 1.345 1.345 0 0 0-1.895.111c-1.331 1.495-2.543 3.348-3.603 5.508-2.193 4.466-3.162 11.885-3.477 14.867l-.016.146c-.092.59.208 1.161.749 1.419l32.766.05.093-.042c.555-.254.868-.851.763-1.451z"/><path class="bjst0" d="M20.677 26.08l.065-.002c.309-.015.638-.046.979-.087 1.664 4.634 5.432 9.478 9.994 9.478 5.911 0 10.295-7.726 10.938-13.42 1.28-.609 2.144-1.347 2.571-2.197.108-.216.156-.456.139-.697-.496-6.967-6.358-12.425-13.345-12.425-7.38 0-13.384 6.007-13.384 13.391 0 2.032.399 3.939.772 5.047.185.545.695.912 1.271.912zm11.039 6.706c-3.119 0-5.916-3.683-7.313-7.278 3.506-.828 8.182-2.63 11.216-4.92a12.902 12.902 0 0 1-.223 1.29 1.34 1.34 0 0 0 1.435 1.683 23.351 23.351 0 0 0 2.932-.52c-.949 4.289-4.249 9.745-8.047 9.745zm.302-23.372c5.386 0 10.017 4.15 10.627 9.482-.611.646-2.273 1.304-4.326 1.72.049-.434.089-.887.117-1.353.048-.778.067-1.583.056-2.392a1.352 1.352 0 0 0-1.083-1.298 1.349 1.349 0 0 0-1.495.792c-.201.474-.638 1.006-1.298 1.582-2.969 2.588-9.064 4.836-12.943 5.35a14.998 14.998 0 0 1-.357-3.178c.001-5.902 4.801-10.705 10.702-10.705z"/></symbol><symbol viewBox="0 0 64 64" id="rate" xmlns="http://www.w3.org/2000/svg"><path class="bkst0" d="M47.2 53.8c.2 0 .4 0 .5.1l12.7 6.4-5.3-14.6c-.1-.3-.1-.7.1-1 2.5-4.3 3.8-9.2 3.8-14.2C59 15 46.4 2.4 30.8 2.4 15.3 2.4 2.6 15 2.6 30.6s12.7 28.2 28.2 28.2c5.6 0 11-1.6 15.7-4.8.2-.1.4-.2.7-.2zM62.6 64c-.2 0-.4-.1-.5-.1l-14.8-7.5c-4.9 3.1-10.6 4.8-16.4 4.8C14 61.2.2 47.5.2 30.6.2 13.7 14 0 30.8 0c16.9 0 30.6 13.7 30.6 30.6 0 5.2-1.3 10.4-3.9 14.9l6.2 16.9c.2.4 0 1-.3 1.3-.2.2-.5.3-.8.3z"/><path class="bkst0" d="M32 13.5l5.5 9L47.7 25c.9.2 1.3 1.3.7 2l-6.8 8 .8 10.5c.1 1-.9 1.6-1.8 1.2l-9.7-4-9.7 4c-.9.4-1.8-.3-1.7-1.2l.8-10.5-6.8-8c-.6-.7-.2-1.8.7-2l10.2-2.5 5.5-9c.5-.9 1.6-.8 2.1 0zm3.6 10.6l-4.7-7.7-4.7 7.7c-.2.3-.4.5-.8.6l-8.8 2.1 5.8 6.8c.2.2.4.6.3 1l-.7 9 8.3-3.4c.3-.1.6-.1.9 0l8.3 3.4-.7-9c0-.3.1-.6.3-.9l5.8-6.9-8.7-2.1s-.4-.2-.6-.6z"/></symbol><symbol viewBox="0 0 64 64" id="ref" xmlns="http://www.w3.org/2000/svg"><path class="blst0" d="M20.3 5.1h24.1V57H19.6V5.1h.7zM43 6.5H21v49h22v-49z"/><path class="blst0" d="M23.6 56.3H25v2.6h-1.4zm15.3 0h1.4v2.6h-1.4zm-18.6-21h23.3v1.4H20.3z"/><path class="blst0" d="M20.3 18.4h1.5c.5 0 1 .2 1.4.6.3.3.6.8.6 1.4v27.7c0 .5-.2 1-.6 1.4-.3.3-.8.6-1.4.6h-2.2V18.4h.7zm1.5 1.5H21v28.8h.8c.2 0 .3-.1.4-.2.1-.1.2-.2.2-.4V20.4c0-.2-.1-.3-.2-.4-.1-.1-.2-.1-.4-.1z"/></symbol><symbol viewBox="0 0 64 64" id="rub" xmlns="http://www.w3.org/2000/svg"><path d="M54.3 9.1C43.8-1.2 27.6-3 15.1 4.9c-.8.5-1 1.5-.5 2.3s1.5 1 2.3.5C28.1.7 42.5 2.3 52 11.5c5.5 5.3 8.5 12.5 8.6 20.1.1 7.6-2.8 14.9-8.1 20.3-5.3 5.5-12.5 8.5-20.1 8.6-7.6.1-14.8-2.8-20.3-8.1-9.9-9.5-11.5-24.7-4-36.2.2-.4.3-.8.2-1.3-.1-.4-.3-.8-.7-1.1-.8-.5-1.8-.3-2.3.5-8.5 12.8-6.6 29.8 4.4 40.5 6 5.9 13.9 9.1 22.3 9.1h.4c8.5-.1 16.5-3.5 22.5-9.7 6-6.1 9.2-14.2 9.1-22.7-.1-8.4-3.5-16.4-9.7-22.4z"/><path d="M46.6 15.2c-2.5-2.1-5.8-3.2-10.1-3.2H24.1c-.4 0-.7.1-1 .4-.2.3-.4.6-.4 1v19.8h-4.6c-1 0-1.8.8-1.8 1.8s.8 1.8 1.8 1.8h4.6v4.8h-4.6c-1 0-1.8.8-1.8 1.8s.8 1.8 1.8 1.8h4.6v7.5c0 .4.1.7.4 1s.6.4 1 .4h1.1c.4 0 .7-.1 1-.4.3-.2.4-.6.4-1v-7.5h11.6c1 0 1.8-.8 1.8-1.8s-.8-1.8-1.8-1.8H26.6v-4.8h9.9c4.3 0 7.6-1.1 10.1-3.2s3.7-5.2 3.7-9.2c0-4-1.2-7-3.7-9.2zM43.9 31c-1.7 1.5-4.3 2.2-7.7 2.2h-9.6V15.6h9.6c3.4 0 6 .7 7.7 2.2 1.7 1.5 2.6 3.7 2.6 6.6 0 2.9-.8 5.1-2.6 6.6z"/></symbol><symbol viewBox="0 0 64 64" id="slon" xmlns="http://www.w3.org/2000/svg"><path class="bnst0" d="M8.2 44h47.5v1.4H54v4.3c0 .5-.2.9-.5 1.2-.3.3-.7.5-1.2.5H11.8c-.5 0-.9-.2-1.2-.5-.3-.3-.5-.7-.5-1.2v-4.3H8.2V44zm44.4 1.5H11.4v4.3c0 .1 0 .2.1.2s.1.1.2.1h40.5c.1 0 .2 0 .2-.1.1-.1.1-.2.1-.2v-4.3z"/><path class="bnst0" d="M44.1 12.5c7.5.1 10 10.9 10 16.5 0 8.4-3 14.5-12.1 14.5v-4.1c1.2-.4 2.9-.7 2.9-2.3 0-1.9-2.3-1.9-3.7-1.9-.7 2.9-1.9 5.4-3.5 7.2-1.7 1.9-3.7 3.1-5.9 3.1H29V42c0-1.7-1.4-3.1-3.1-3.1-1.7 0-3.1 1.4-3.1 3.1v3.4h-2.9c-2.8 0-5.4-1.9-7.2-5-1.8-3-2.8-7-2.8-11.5 0-4.7 1.2-9 3.6-12.1 2.2-2.7 5.5-4.4 10-4.4h8.4c1.1 0 2.2.3 3.2.9 1-.6 2.1-.9 3.3-.9h5.7zM35 15.2c-2 1.6-4.1 4.7-3.9 7.4.2 2.6 2 4.2 4.3 5v1.5c-3-.9-5.5-3-5.7-6.4-.2-3.1 2-6.5 4.2-8.4-.6-.3-1.3-.4-2-.4h-8.4c-4 0-6.9 1.5-8.9 3.9-2.3 2.7-3.3 6.7-3.3 11.2 0 4.2 1 8 2.6 10.8 1.6 2.6 3.7 4.3 6 4.3h1.5v-2c0-2.5 2-4.5 4.5-4.5s4.5 2 4.5 4.5v2h1.5c1.7 0 3.4-1 4.8-2.6 1.9-2.2 2.8-4.9 3.4-7.7 2.5 0 6.3-.1 6.3 3.4 0 1.9-1.3 2.8-2.9 3.3V42c7.1 0 9.3-7.1 9.3-13.1 0-4.5-2.1-15.1-8.6-15.1h-5.7c-1.4.1-2.5.6-3.5 1.4z"/><path class="bnst1" d="M46 29.3c-.7 0-1.3.6-1.3 1.3 0 .7.6 1.3 1.3 1.3.7 0 1.3-.6 1.3-1.3 0-.7-.6-1.3-1.3-1.3z"/></symbol><symbol viewBox="0 0 64 64" id="sos" xmlns="http://www.w3.org/2000/svg"><path class="bost0" d="M43.7 28.7h-5.5c-1.7 0-4.4 2.1-6.5 5.2-1.9 2.6-3.3 5.8-3.3 8.9 0 2.7 2.2 4.9 4.9 4.9h2.2c-1.7-2.3-1.4-5.6.6-7.7 2-2 5.2-2.3 7.5-.7V28.7zM13.7 46h5.4l6.1-22.4c.9-3.3 2.6-6.2 5-8 2.2-1.7 4.9-2.5 8.1-1.9 2.1.3 3 2.2 3.3 4.1.4 1.9.2 4.3-.2 6.2h1.9v3.4H45v13.3c3.1 3.9.2 9.6-4.7 9.6-1.3 0-2.5-.4-3.5-1.1h-3.6c-3.5 0-6.3-2.8-6.3-6.3 0-3.4 1.5-6.9 3.5-9.7 2.4-3.3 5.4-5.7 7.6-5.7v-3.4h2c.5-1.8.6-4.2.3-6-.2-1.3-.8-2.8-2.2-3-2.8-.5-5.1.2-7 1.6-2.1 1.6-3.6 4.2-4.5 7.3l-6 22.1h5.6v3.6h-13V46h.5zm11.4 1H14.3v1.4h10.8V47zm17.1-22h-3.1v2.3h3.1V25zm1.4 16c-1.8-1.8-4.7-1.8-6.5 0-1.8 1.8-1.8 4.7 0 6.5.8.8 2 1.3 3.3 1.3 4 .1 6.1-4.9 3.2-7.8z"/></symbol><symbol id="star" viewBox="0 0 64 64" xmlns="http://www.w3.org/2000/svg"><style>.bpst0{fill:#e5d351}</style><path class="bpst0" d="M51.13 62.485c-.127 0-.254-.023-.376-.07L32 55.197l-18.754 7.218a1.048 1.048 0 0 1-1.422-1.033l1.07-20.066L.234 25.71a1.045 1.045 0 0 1 .543-1.671l19.415-5.183 10.93-16.863a1.044 1.044 0 0 1 1.757 0l10.929 16.863 19.415 5.183a1.048 1.048 0 0 1 .543 1.671L51.107 41.316l1.069 20.066a1.048 1.048 0 0 1-1.046 1.103zM32 53.028c.128 0 .255.023.376.07l17.622 6.782-1.005-18.855a1.042 1.042 0 0 1 .233-.715l11.895-14.664-18.244-4.871a1.045 1.045 0 0 1-.609-.442L32 4.488 21.73 20.333a1.045 1.045 0 0 1-.609.442L2.878 25.646 14.774 40.31c.163.202.246.457.233.715L14.002 59.88l17.622-6.782c.121-.047.248-.07.376-.07z"/></symbol><symbol id="star-full" viewBox="0 0 64 64" xmlns="http://www.w3.org/2000/svg"><style>.bqst0{fill:#fff89f}.bqst1{fill:#e5d351}</style><path class="bqst0" d="M51.13 62.485c-.127 0-.254-.023-.376-.07L32 55.197l-18.754 7.218a1.048 1.048 0 0 1-1.422-1.033l1.07-20.066L.234 25.71a1.045 1.045 0 0 1 .543-1.671l19.415-5.183 10.93-16.863a1.044 1.044 0 0 1 1.757 0l10.929 16.863 19.415 5.183a1.048 1.048 0 0 1 .543 1.671L51.107 41.316l1.069 20.066a1.048 1.048 0 0 1-1.046 1.103z"/><path class="bqst1" d="M51.13 62.485c-.127 0-.254-.023-.376-.07L32 55.197l-18.754 7.218a1.048 1.048 0 0 1-1.422-1.033l1.07-20.066L.234 25.71a1.045 1.045 0 0 1 .543-1.671l19.415-5.183 10.93-16.863a1.044 1.044 0 0 1 1.757 0l10.929 16.863 19.415 5.183a1.048 1.048 0 0 1 .543 1.671L51.107 41.316l1.069 20.066a1.048 1.048 0 0 1-1.046 1.103zM32 53.028c.128 0 .255.023.376.07l17.622 6.782-1.005-18.855a1.042 1.042 0 0 1 .233-.715l11.895-14.664-18.244-4.871a1.045 1.045 0 0 1-.609-.442L32 4.488 21.73 20.333a1.045 1.045 0 0 1-.609.442L2.878 25.646 14.774 40.31c.163.202.246.457.233.715L14.002 59.88l17.622-6.782c.121-.047.248-.07.376-.07z"/></symbol><symbol id="star-half" viewBox="0 0 64 64" xmlns="http://www.w3.org/2000/svg"><style>.brst0{fill:#fff89f}.brst1{fill:#e5d351}</style><path class="brst0" d="M32 1.515c-.355 0-.686.18-.879.478l-10.93 16.863L.777 24.039a1.048 1.048 0 0 0-.543 1.671l12.66 15.606-1.07 20.066a1.048 1.048 0 0 0 1.422 1.033L32 55.197V1.515z"/><path class="brst1" d="M51.13 62.485c-.127 0-.254-.023-.376-.07L32 55.197l-18.754 7.218a1.048 1.048 0 0 1-1.422-1.033l1.07-20.066L.234 25.71a1.045 1.045 0 0 1 .543-1.671l19.415-5.183 10.93-16.863a1.044 1.044 0 0 1 1.757 0l10.929 16.863 19.415 5.183a1.048 1.048 0 0 1 .543 1.671L51.107 41.316l1.069 20.066a1.048 1.048 0 0 1-1.046 1.103zM32 53.028c.128 0 .255.023.376.07l17.622 6.782-1.005-18.855a1.042 1.042 0 0 1 .233-.715l11.895-14.664-18.244-4.871a1.045 1.045 0 0 1-.609-.442L32 4.488 21.73 20.333a1.045 1.045 0 0 1-.609.442L2.878 25.646 14.774 40.31c.163.202.246.457.233.715L14.002 59.88l17.622-6.782c.121-.047.248-.07.376-.07z"/></symbol><symbol viewBox="0 0 64 64" id="status-1" xmlns="http://www.w3.org/2000/svg"><path d="M61.7 17.9c0-.1 0-.1 0 0 0-.1 0-.2-.1-.3v-.2s0-.1-.1-.1c0-.1-.1-.1-.1-.2 2-2.2 2.8-4.4 2.5-6.8-.3-2.2-1.5-4.3-3.8-6.6C58.5 2.1 56 0 52.9 0c-2.1 0-4.2.9-6.2 2.8-.2-.1-.4-.1-.6-.1-.5 0-1 .2-1.3.5l-28.2 28-6.7 6.7-.3.3c-.1.2-3.1 5-5.7 10.2-5 10.3-4.3 13.1-2.8 14.6.7.7 1.7 1 2.9 1 2.4 0 6.3-1.3 11.7-4C21 57.4 26 54.4 26 54.4l.3-.3 3.6-3.6.3-.3c.1-.1.2-.2.4-.3l25.6-25.4 5.1-5 .2-.2v-.1c0-.1.1-.1.1-.2 0 0 0-.1.1-.1v-.1c0-.1 0-.1.1-.2v-.3c-.1-.3-.1-.3-.1-.4zM27.9 47.3c-.1.1-.2.2-.3.4l-.3.3-2.1 2c-1-1.4-2.7-3.6-4.8-5.7-2.4-2.5-5-4.4-6.4-5.3l4.3-4.2 23-22.8c1.4 1.1 3.9 2.9 6 5.1 2.1 2.1 4 4.6 5.1 6L27.9 47.3zm22-32.9c-2.1-2.1-4.4-3.9-6-5.1l2.5-2.4c1.4 1.1 3.9 3 6 5.1 2.2 2.1 4.1 4.6 5.1 6L55 20.4c-1.1-1.6-3-3.9-5.1-6zm5.1-5c-1.8-1.8-3.7-3.3-5.1-4.5 1.1-.9 2.1-1.3 3-1.3 1.4 0 2.9.8 4.7 2.7 1.7 1.7 2.6 3.1 2.8 4.5.1 1.1-.3 2.2-1.2 3.4C58 12.7 56.6 11 55 9.4zM4.9 55.2c.5.2 1.7.8 2.6 1.7.8.7 1.2 1.5 1.5 2.1-2.9 1.1-4.3 1.3-5 1.3h-.3c-.1-.4-.1-1.7 1.2-5.1zm7.5 2.4c-.4-.8-1.1-2.1-2.2-3.2-1.3-1.3-3-2.1-3.8-2.5.3-.6.5-1.1.9-1.8 1.6-3.3 3.4-6.4 4.5-8.2 1.1.8 3.7 2.7 6.1 5 2.1 2 3.7 4.2 4.5 5.4-1.8 1.1-5 2.9-8.4 4.5-.6.3-1.1.5-1.6.8z"/><path d="M48.2 20.6c-.7-.7-1.9-.7-2.6 0L23.3 42.7c-.3.3-.5.8-.5 1.3s.2.9.5 1.3c.3.3.8.5 1.3.5s.9-.2 1.3-.5l22.3-22.2c.3-.3.5-.8.5-1.3s-.1-.9-.5-1.2zM43.8 17c0-.5-.2-.9-.5-1.3-.7-.7-1.9-.7-2.6 0L18.4 37.8c-.3.3-.5.8-.5 1.3s.2.9.5 1.3c.3.3.8.5 1.3.5s.9-.2 1.3-.5l22.3-22.2c.3-.3.5-.8.5-1.2z"/></symbol><symbol viewBox="0 0 64 64" id="status-2" xmlns="http://www.w3.org/2000/svg"><path d="M46.8 24.4c-1-.5-2.3-.1-2.8.8-.3.5-.3 1-.2 1.5.2.5.5.9 1 1.2 10.8 5.6 14.1 18.3 14.8 22.2-3.9 1.7-14.8 5.7-27.6 5.7s-23.7-4-27.6-5.7c.5-2.4 1.7-7.2 4.5-12C13.9 29.4 21.7 25 32 25c1.8 0 3.5.1 5.1.4 1.1.2 2.2-.5 2.4-1.6.2-1.1-.6-2.1-1.7-2.3C36 21.2 34 21 32 21c-11.7 0-21 5.2-26.8 15.1C.9 43.5 0 50.7 0 51c-.1.8.4 1.6 1.1 1.9.6.3 14 6.7 30.9 6.7s30.3-6.4 30.9-6.7c.8-.4 1.2-1.1 1.1-1.9-.1-.8-2.3-18.8-17.2-26.6z"/><path d="M5.3 26c.9.5 1.8.7 2.7.7 1.5 0 3-.7 4.5-2.1C17.7 20.2 24.3 18 32 18c7.5 0 14 2.1 19.2 6.3l.1.1c.5.4 1.6 1.3 3.3 1.3 1 0 2-.3 3.1-.9 1-.5 1.4-1.8.9-2.8-.5-1-1.8-1.4-2.8-.9-.6.3-.9.4-1.1.4-.2 0-.4-.1-.7-.4l-.2-.1c-3.6-2.9-7.6-4.9-12.1-6.1.9-1.1 1.4-2.6 1.4-4.1 0-3.6-3-6.6-6.6-6.6-1.8 0-3.3.7-4.5 1.8-1.2-1.1-2.8-1.8-4.5-1.8-3.6 0-6.6 3-6.6 6.6 0 1.6.5 3 1.4 4.1-4.7 1.2-8.9 3.4-12.5 6.4-.1 0-.1.1-.2.2-1 .9-1.5 1.1-2.4.6-1-.5-2.3-.1-2.8.9-.3.5-.3 1.1-.1 1.6.1.7.5 1.2 1 1.4zM36.5 8.5c1.4 0 2.5 1.1 2.5 2.5s-1.1 2.5-2.5 2.5S34 12.4 34 11c.1-1.4 1.2-2.5 2.5-2.5zm-9 0c1.4 0 2.5 1.1 2.5 2.5s-1.1 2.5-2.5 2.5S25 12.4 25 11s1.1-2.5 2.5-2.5z"/></symbol><symbol viewBox="0 0 64 64" id="status-3" xmlns="http://www.w3.org/2000/svg"><path d="M61.2 18.9c-3.5-7.8-9.8-13.8-17.8-16.8A32.5 32.5 0 0 0 31.9 0C21.5 0 11.6 5.2 5.7 13.8c-.7 1-.4 2.3.5 2.9.9.6 2.3.4 2.9-.5 5.2-7.5 13.7-12 22.8-12 3.4 0 6.7.6 9.9 1.8 6.9 2.6 12.4 7.8 15.4 14.6s3.3 14.3.6 21.2c-2.6 6.9-7.8 12.4-14.6 15.4-3.6 1.6-7.4 2.4-11.3 2.4-3.4 0-6.7-.6-9.9-1.8C9.7 53.2 2.3 40.3 4.7 27.2c.2-1.2-.6-2.3-1.7-2.5-1.2-.2-2.3.6-2.5 1.7-2.7 15.1 5.8 30 20.1 35.4C24.3 63.3 28.1 64 32 64c4.5 0 8.9-.9 13.1-2.8 7.8-3.5 13.8-9.8 16.8-17.8s2.8-16.7-.7-24.5z"/><path d="M25.1 47.1c.4.4 1 .7 1.5.7.6 0 1.2-.3 1.6-.7l23.5-27.3c.8-.9.7-2.2-.2-3-.9-.7-2.3-.6-3 .2L26.6 42.5l-11.2-12c-.8-.8-2.2-.9-3-.1-.9.8-.9 2.1-.1 3l12.8 13.7zm1.6-.3z"/></symbol><symbol viewBox="0 0 64 64" id="thumb" xmlns="http://www.w3.org/2000/svg"><path class="bvst0" d="M42.821 59.84c-3.003 0-6.59-.282-10.779-.845-.271-.036-.497-.067-.671-.089-1.115-.14-2.143-.859-3.232-1.62-2.133-1.492-4.341-3.034-7.763-1.205a1.006 1.006 0 0 1-.471.118H5.238a.999.999 0 0 1-.84-.459C4.218 55.461 0 48.815 0 42.077c0-6.761 4.242-12.849 4.422-13.104a.998.998 0 0 1 .815-.423h10.934a.998.998 0 0 1 0 1.996H5.776c-.916 1.443-3.779 6.367-3.779 11.531 0 5.204 2.886 10.555 3.804 12.126h13.861c4.383-2.217 7.404-.103 9.622 1.448.88.616 1.711 1.197 2.336 1.275.178.022.41.053.688.091 14.144 1.9 18.619.211 19.882-1.542 1.754-2.434 2.601-4.452 4.002-7.795.473-1.128 1.009-2.407 1.659-3.887 2.045-4.654 5.85-13.318 3.278-16.591-4.075-5.186-19.417-2.31-24.985-.765a.997.997 0 0 1-1.193-1.335c.042-.105 4.194-10.55 1.674-15.294-1.871-3.523-5.364-3.721-6.868-3.626-.276 2.412-1.201 9.684-2.812 14.619-1.055 3.232-2.787 5.688-4.054 7.178a.998.998 0 0 1-1.521-1.293c1.151-1.354 2.723-3.582 3.678-6.505 1.849-5.661 2.802-14.905 2.811-14.998a.998.998 0 0 1 .8-.879c2.287-.451 7.264-.075 9.73 4.568 2.273 4.278.222 11.744-.931 15.174 5.323-1.257 20.453-4.173 25.242 1.922 3.056 3.889.184 11.334-3.02 18.628a238.523 238.523 0 0 0-1.646 3.856c-1.407 3.355-2.336 5.572-4.224 8.191-1.54 2.135-5.165 3.197-10.989 3.197z"/><path class="bvst0" d="M18.309 56.2a.998.998 0 0 1-.998-.995l-.067-17.783a.998.998 0 0 1 .994-1.002h.003c.551 0 .998.445.999.995l.067 17.783a.998.998 0 0 1-.994 1.002h-.004zm-7.576-4.885a4.064 4.064 0 0 1-4.06-4.06 4.064 4.064 0 0 1 4.06-4.06 4.064 4.064 0 0 1 4.06 4.06 4.065 4.065 0 0 1-4.06 4.06zm0-6.123a2.066 2.066 0 0 0-2.063 2.063c0 1.138.926 2.063 2.063 2.063a2.065 2.065 0 0 0 2.063-2.063 2.066 2.066 0 0 0-2.063-2.063z"/></symbol><symbol viewBox="0 0 64 64" id="tick" xmlns="http://www.w3.org/2000/svg"><path class="bwst0" d="M29.38 58.759c-7.527 0-15.054-2.865-20.785-8.596-11.46-11.46-11.46-30.107.001-41.568 11.461-11.46 30.108-11.461 41.569 0a29.302 29.302 0 0 1 5.803 8.233 1.312 1.312 0 1 1-2.373 1.121 26.698 26.698 0 0 0-5.285-7.498C37.873.014 20.889.013 10.452 10.451c-10.437 10.437-10.437 27.42 0 37.858 10.438 10.437 27.421 10.437 37.858 0 6.43-6.43 9.143-15.588 7.258-24.497a1.313 1.313 0 0 1 2.568-.544c2.069 9.782-.911 19.836-7.971 26.896-5.731 5.73-13.258 8.595-20.785 8.595z"/><path class="bwst0" d="M62.688 64a1.31 1.31 0 0 1-.928-.384L48.309 50.164a1.31 1.31 0 0 1 0-1.855 1.31 1.31 0 0 1 1.855 0L63.616 61.76a1.31 1.31 0 0 1-.928 2.24zM31.87 42.11l-.027-.001a1.304 1.304 0 0 1-.947-.433L17.25 26.561a1.311 1.311 0 1 1 1.948-1.758l12.711 14.079L60.42 9.748a1.313 1.313 0 0 1 1.876 1.836L32.808 41.716a1.315 1.315 0 0 1-.938.394z"/></symbol><symbol viewBox="0 0 64 64" id="trash" xmlns="http://www.w3.org/2000/svg"><path class="bxst0" d="M51.901 64H14.214c-.542 0-1-.403-1.069-.941L5.483 2.799a1.078 1.078 0 0 1 2.137-.272l7.543 59.318h35.766L56.377 9.06a1.071 1.071 0 0 1 1.182-.961c.592.061 1.022.59.961 1.182l-5.548 53.751a1.076 1.076 0 0 1-1.071.968z"/><path class="bxst0" d="M62.677 2.154H1.323a1.077 1.077 0 1 1 0-2.154h61.355a1.077 1.077 0 1 1-.001 2.154zM21.251 58.745a1.077 1.077 0 0 1-1.077-1.077V9.096a1.077 1.077 0 1 1 2.154 0v48.572c0 .595-.482 1.077-1.077 1.077zm10.691-11.33a1.077 1.077 0 0 1-1.077-1.077V8.805a1.077 1.077 0 1 1 2.154 0v37.533c0 .595-.482 1.077-1.077 1.077zm10.923-4.532a1.077 1.077 0 0 1-1.077-1.077V8.688a1.077 1.077 0 1 1 2.154 0v33.118c0 .595-.482 1.077-1.077 1.077z"/><path class="bxst0" d="M50.692 14.705h-36.92a1.077 1.077 0 1 1 0-2.154h36.92a1.077 1.077 0 1 1 0 2.154zm-2.398 10.69H16.17a1.077 1.077 0 1 1 0-2.154h32.124a1.077 1.077 0 1 1 0 2.154zM36.451 36.318H16.69a1.077 1.077 0 1 1 0-2.154h19.76a1.077 1.077 0 0 1 .001 2.154z"/></symbol><symbol viewBox="0 0 64 64" id="vk" xmlns="http://www.w3.org/2000/svg"><path class="byst0" d="M53.2 31.6s8.4-11.9 9.3-15.8c.3-1.4-.3-2.2-1.8-2.2h-7.3c-1.7 0-2.3.7-2.8 1.8 0 0-4 8.4-8.8 13.7-1.5 1.7-2.3 2.2-3.2 2.2-.7 0-1-.6-1-2.1V15.7c0-1.9-.2-2.5-1.8-2.5H24.1c-.9 0-1.5.5-1.5 1.2 0 1.8 2.7 2.2 2.7 7v10c0 2-.1 2.8-1.1 2.8-2.5 0-8.5-8.7-11.8-18.5-.7-2-1.4-2.6-3.3-2.6H1.8c-1 .2-1.8.9-1.8 2 0 2 2.3 11 11.3 23.1 6 8.2 14 12.6 21.1 12.6 4.4 0 5.4-.7 5.4-2.6v-6.3c0-1.6.6-2.2 1.5-2.2 1 0 2.8.3 6.9 4.4 4.9 4.7 5.2 6.6 7.9 6.6h8.2c.8 0 1.6-.4 1.6-1.8 0-1.8-2.4-5.1-6.1-9-1.5-2-4-4.2-4.7-5.2-1.1-1.2-.7-1.8.1-3.1z"/></symbol><symbol viewBox="0 0 64 64" id="war" xmlns="http://www.w3.org/2000/svg"><path class="bzst0" d="M32 6.5h18.4v49.1H31.3V6.5h.7zm16.9 1.4H32.7v46.3h16.2V7.9z"/><path class="bzst0" d="M14.4 6.5h18.4v49.1h-19V6.5h.6zm16.9 1.4H15.1v46.3h16.2V7.9z"/><path class="bzst0" d="M18.9 54.9h1.4v2.6h-1.4zm24.9 0h1.4v2.6h-1.4zM32 13.4h17.6v1.4H32z"/><path class="bzst0" d="M36.4 14.2h1.2v2.3h-1.2zm7.5 0h1.2v2.3h-1.2z"/><path class="bzst0" d="M37.5 17h-.9v25.6h.9V17zM36 15.7h2.8v28.1h-3.4V15.7h.6zm8.9 1.3H44v25.6h.9V17zm-1.5-1.3h2.8v28.1h-3.4V15.7h.6z"/><path class="bzst1" d="M27.4 27.1h1.4v5.5h-1.4z"/></symbol><symbol viewBox="0 0 64 64" id="wash" xmlns="http://www.w3.org/2000/svg"><path class="cast0" d="M57.417 60.668H6.583a.877.877 0 0 1-.877-.877V.877A.876.876 0 0 1 6.583 0h50.835c.485 0 .877.393.877.877v58.914a.878.878 0 0 1-.878.877zM7.46 58.914h49.08V1.755H7.46v57.159z"/><path class="cast0" d="M57.417 15.085H6.583a.877.877 0 0 1-.877-.877V.877A.876.876 0 0 1 6.583 0h50.835c.485 0 .877.393.877.877v13.33a.878.878 0 0 1-.878.878zM7.46 13.33h49.08V1.755H7.46V13.33z"/><path class="cast0" d="M49.71 11.546c-2.208 0-4.004-1.796-4.004-4.004s1.796-4.004 4.004-4.004c2.208 0 4.004 1.796 4.004 4.004s-1.796 4.004-4.004 4.004zm0-6.253c-1.24 0-2.25 1.009-2.25 2.25s1.009 2.25 2.25 2.25a2.251 2.251 0 0 0 0-4.5zm-11.049 6.253c-2.208 0-4.004-1.796-4.004-4.004s1.796-4.004 4.004-4.004c2.208 0 4.004 1.796 4.004 4.004s-1.796 4.004-4.004 4.004zm0-6.253c-1.24 0-2.249 1.009-2.249 2.25s1.009 2.25 2.249 2.25c1.24 0 2.25-1.009 2.25-2.25s-1.01-2.25-2.25-2.25zM24.45 10.888H11.697a.877.877 0 0 1-.877-.877V5.074c0-.485.393-.877.877-.877H24.45c.485 0 .877.393.877.877v4.936a.877.877 0 0 1-.877.878zM12.574 9.133h10.999V5.951H12.574v3.182zM32.843 56.06c-10.283 0-18.65-8.367-18.65-18.65 0-10.283 8.366-18.649 18.65-18.649 10.283 0 18.65 8.366 18.65 18.649 0 10.284-8.367 18.65-18.65 18.65zm0-35.545c-9.316 0-16.895 7.579-16.895 16.895 0 9.316 7.579 16.895 16.895 16.895s16.895-7.579 16.895-16.895c0-9.316-7.579-16.895-16.895-16.895z"/><path class="cast0" d="M32.843 52.029c-8.06 0-14.618-6.558-14.618-14.619 0-8.06 6.558-14.618 14.618-14.618 4.229 0 8.249 1.834 11.03 5.031a.877.877 0 0 1-.067 1.221c-1.856 1.711-3.009 4.916-3.009 8.366 0 3.449 1.153 6.655 3.009 8.367a.877.877 0 0 1 .067 1.221 14.62 14.62 0 0 1-11.03 5.031zm0-27.482c-7.093 0-12.864 5.77-12.864 12.863s5.771 12.864 12.864 12.864c3.452 0 6.746-1.389 9.159-3.837-1.866-2.124-2.96-5.422-2.96-9.027s1.094-6.903 2.96-9.026a12.859 12.859 0 0 0-9.159-3.837z"/><path class="cast0" d="M19.679 40.372a.878.878 0 0 1-.447-1.633c.614-.362 1.203-.853 1.827-1.373 1.431-1.193 3.053-2.545 5.445-2.625 1.725-.055 2.82.633 3.884 1.301 1.056.663 2.056 1.293 3.806 1.26 2.729-.045 3.697-.894 4.551-1.643.252-.221.49-.43.763-.616a.877.877 0 0 1 .989 1.449 6.703 6.703 0 0 0-.594.485c-.973.853-2.305 2.022-5.678 2.079-2.278.033-3.6-.794-4.769-1.529-.954-.599-1.705-1.075-2.891-1.033-1.79.06-3.049 1.109-4.381 2.219-.65.542-1.322 1.102-2.059 1.536a.868.868 0 0 1-.446.123z"/><path class="cast0" d="M20.828 44.96a.878.878 0 0 1-.447-1.633c.626-.369 1.143-.815 1.69-1.287 1.227-1.058 2.496-2.152 4.872-2.232 1.717-.057 2.744.576 3.651 1.135.922.568 1.791 1.119 3.549 1.075 2.94-.049 3.927-.812 4.798-1.486.191-.148.375-.29.565-.419a.876.876 0 1 1 .989 1.449c-.162.111-.318.232-.481.358-.979.757-2.319 1.794-5.842 1.853-2.273.03-3.506-.724-4.499-1.336-.829-.511-1.483-.923-2.672-.875-1.757.059-2.652.83-3.785 1.807-.582.502-1.184 1.02-1.945 1.469a.856.856 0 0 1-.443.122zm8.25-11.671a2.96 2.96 0 0 1-2.955-2.956 2.959 2.959 0 0 1 2.955-2.955 2.959 2.959 0 0 1 2.955 2.955 2.958 2.958 0 0 1-2.955 2.956zm0-4.155a1.201 1.201 0 1 0 .002 2.402 1.201 1.201 0 0 0-.002-2.402zm5.64 5.807h-.027a1.366 1.366 0 0 1-.967-.422 1.374 1.374 0 0 1-.387-.984 1.39 1.39 0 0 1 1.381-1.357 1.39 1.39 0 0 1 1.381 1.407 1.39 1.39 0 0 1-1.381 1.356zm0-1.755a.373.373 0 1 0-.009.746h.009v-.746zm.005 0l-.004.746a.371.371 0 1 0 .267-.631.38.38 0 0 0-.263-.115zM49.514 64a4.214 4.214 0 0 1-4.21-4.209.877.877 0 1 1 1.754 0 2.457 2.457 0 0 0 2.455 2.454 2.457 2.457 0 0 0 2.455-2.454.877.877 0 1 1 1.754 0A4.212 4.212 0 0 1 49.514 64zm-35.028 0a4.214 4.214 0 0 1-4.209-4.209.877.877 0 1 1 1.754 0 2.457 2.457 0 0 0 2.455 2.454 2.457 2.457 0 0 0 2.455-2.454.877.877 0 1 1 1.754 0A4.212 4.212 0 0 1 14.486 64z"/></symbol><symbol viewBox="0 0 64 64" id="window" xmlns="http://www.w3.org/2000/svg"><path class="cbst0" d="M32 13.5h18.4v34.1H31.3V13.5h.7zm16.9 1.4H32.7v31.2h16.2V14.9z"/><path class="cbst0" d="M14.4 13.5h18.4v34.1h-19V13.5h.6zm16.9 1.4H15.1v31.2h16.2V14.9z"/><path class="cbst0" d="M12.4 46.3h39.8v4.2H11.8v-4.2h.6zM51 47.5H13v1.7h38v-1.7zM32 25.8h17.6v1.4H32z"/></symbol><symbol viewBox="0 0 64 64" id="x" xmlns="http://www.w3.org/2000/svg"><path class="ccst0" d="M14.267 49.732a1.62 1.62 0 0 1 0-2.29l33.176-33.176a1.62 1.62 0 0 1 2.29 2.29L16.557 49.732a1.62 1.62 0 0 1-2.29 0z"/><path class="ccst0" d="M15.412 50.331a1.73 1.73 0 0 1-1.233-.512c-.33-.329-.511-.767-.511-1.232s.181-.903.511-1.233l33.175-33.175c.33-.33.769-.511 1.234-.511s.903.181 1.233.511c.329.33.511.768.511 1.233 0 .466-.182.904-.512 1.233L16.646 49.82c-.33.329-.768.511-1.234.511zm33.176-36.414c-.399 0-.774.155-1.058.438L14.355 47.531c-.282.281-.438.656-.438 1.056s.155.774.438 1.056v.001c.282.282.658.438 1.057.438s.774-.155 1.057-.438l33.175-33.176a1.48 1.48 0 0 0 .438-1.057c0-.399-.155-.774-.438-1.056s-.657-.438-1.056-.438z"/><path class="ccst0" d="M14.267 16.558a1.62 1.62 0 0 1 2.29-2.29l33.176 33.175a1.62 1.62 0 0 1-2.29 2.29L14.267 16.558z"/><path class="ccst0" d="M48.588 50.332c-.466 0-.903-.182-1.233-.512L14.178 16.646a1.747 1.747 0 0 1 0-2.467c.68-.68 1.787-.68 2.467 0l33.177 33.175c.329.33.51.768.51 1.233s-.181.903-.51 1.233c-.33.33-.768.512-1.234.512zM14.355 16.47l33.177 33.174c.281.283.656.438 1.056.438s.774-.155 1.057-.438a1.493 1.493 0 0 0 0-2.111L16.468 14.356a1.495 1.495 0 0 0-2.113 2.114z"/><path class="ccst0" d="M56.836 64H7.164C3.214 64 0 60.786 0 56.836V7.164C0 3.214 3.214 0 7.164 0h49.672C60.786 0 64 3.214 64 7.164v49.672C64 60.786 60.786 64 56.836 64zM7.164 2.866a4.304 4.304 0 0 0-4.299 4.299v49.672a4.304 4.304 0 0 0 4.299 4.299h49.672a4.304 4.304 0 0 0 4.299-4.299V7.164a4.304 4.304 0 0 0-4.299-4.299H7.164z"/></symbol><symbol viewBox="0 0 64 64" id="y1" xmlns="http://www.w3.org/2000/svg"><path class="cdst0" d="M51.7 15.6c.6-.6 1.6-.7 2.2-.2.7.6.7 1.6.2 2.2L27.3 48.4c-.6.7-1.5.7-2.2.2-.1 0-.1-.1-.2-.2L10 33.2c-.6-.6-.6-1.6 0-2.2.6-.6 1.6-.6 2.2 0L26 45l25.7-29.4z"/></symbol><symbol viewBox="0 0 64 64" id="y2" xmlns="http://www.w3.org/2000/svg"><path class="cest0" d="M51.7 15.6c.6-.6 1.6-.7 2.2-.2.7.6.7 1.6.2 2.2L27.3 48.4c-.6.7-1.5.7-2.2.2-.1 0-.1-.1-.2-.2L10 33.2c-.6-.6-.6-1.6 0-2.2.6-.6 1.6-.6 2.2 0L26 45l25.7-29.4z"/><path class="cest0" d="M6.9 0h50.3C60.9 0 64 3.1 64 6.9v50.3c0 3.8-3.1 6.9-6.9 6.9H6.9C3.1 64 0 60.9 0 57.1V6.9C0 3.1 3.1 0 6.9 0zm50.2 3.1H6.9c-2.1 0-3.8 1.7-3.8 3.8v50.3c0 2.1 1.7 3.8 3.8 3.8h50.3c2.1 0 3.8-1.7 3.8-3.8V6.9c-.1-2.1-1.8-3.8-3.9-3.8z"/></symbol></svg>